<svg xmlns="http://www.w3.org/2000/svg" xmlns:xlink="http://www.w3.org/1999/xlink" width="1302" height="955" fill="none" xmlns:v="https://vecta.io/nano"><style><![CDATA[.B{fill:#d5d5d5}.C{color-interpolation-filters:sRGB}.D{flood-opacity:0}.E{fill:#fff}.F{fill-rule:evenodd}.G{fill:#0b8500}.H{fill-opacity:.2}.I{fill-opacity:.15}.J{fill:#ac0000}]]></style><g clip-path="url(#AJ)"><path d="M0 0h1302v955H0z" class="E"/><rect y="4" width="1302" height="951" rx="80" fill="#f2f2f2"/><g filter="url(#D)" class="B"><path d="M94 169h1113v6H94z"/><path d="M94 275h1113v6H94z"/><path d="M94 381h1113v6H94z"/><path d="M94 487h1113v6H94z"/><path d="M94 593h1113v6H94z"/><path d="M94 699h1113v6H94z"/><path d="M94 805h1113v6H94z"/><path transform="rotate(90 177 169)" d="M177 169h642v6H177z"/><path transform="rotate(90 283 169)" d="M283 169h642v6H283z"/><path transform="rotate(90 389 169)" d="M389 169h642v6H389z"/><path transform="rotate(90 495 169)" d="M495 169h642v6H495z"/><path transform="rotate(90 601 169)" d="M601 169h642v6H601z"/><path transform="rotate(90 707 169)" d="M707 169h642v6H707z"/><path transform="rotate(90 813 169)" d="M813 169h642v6H813z"/><path transform="rotate(90 919 169)" d="M919 169h642v6H919z"/><path transform="rotate(90 1025 169)" d="M1025 169h642v6h-642z"/><path transform="rotate(90 1131 169)" d="M1131 169h642v6h-642z"/><circle cx="174" cy="278" r="6"/><circle cx="280" cy="278" r="6"/><circle cx="386" cy="278" r="6"/><circle cx="492" cy="278" r="6"/><circle cx="598" cy="278" r="6"/><circle cx="704" cy="278" r="6"/><circle cx="810" cy="278" r="6"/><circle cx="916" cy="278" r="6"/><circle cx="1022" cy="278" r="6"/><circle cx="1128" cy="278" r="6"/><circle cx="174" cy="384" r="6"/><circle cx="280" cy="384" r="6"/><circle cx="386" cy="384" r="6"/><circle cx="492" cy="384" r="6"/><circle cx="598" cy="384" r="6"/><circle cx="704" cy="384" r="6"/><circle cx="810" cy="384" r="6"/><circle cx="916" cy="384" r="6"/><circle cx="1022" cy="384" r="6"/><circle cx="1128" cy="384" r="6"/><circle cx="174" cy="490" r="6"/><circle cx="280" cy="490" r="6"/><circle cx="386" cy="490" r="6"/><circle cx="492" cy="490" r="6"/><circle cx="598" cy="490" r="6"/><circle cx="704" cy="490" r="6"/><circle cx="810" cy="490" r="6"/><circle cx="916" cy="490" r="6"/><circle cx="1022" cy="490" r="6"/><circle cx="1128" cy="490" r="6"/><circle cx="174" cy="596" r="6"/><circle cx="280" cy="596" r="6"/><circle cx="386" cy="596" r="6"/><circle cx="492" cy="596" r="6"/><circle cx="598" cy="596" r="6"/><circle cx="704" cy="596" r="6"/><circle cx="810" cy="596" r="6"/><circle cx="916" cy="596" r="6"/><circle cx="1022" cy="596" r="6"/><circle cx="1128" cy="596" r="6"/><circle cx="174" cy="702" r="6"/><circle cx="280" cy="702" r="6"/><circle cx="386" cy="702" r="6"/><circle cx="492" cy="702" r="6"/><circle cx="598" cy="702" r="6"/><circle cx="704" cy="702" r="6"/><circle cx="810" cy="702" r="6"/><circle cx="916" cy="702" r="6"/><circle cx="1022" cy="702" r="6"/><circle cx="1128" cy="702" r="6"/></g><g filter="url(#E)"><path d="M183 465c33.5-54.833 80.6-159.2 97-114 20.5 56.5 36 114 61 114s24.585-37.497 43-59.5c38.5-46 69.163 45.506 98.5 83.5 61 79 32 135.5 92 119 55.373-15.227 58 112 90 94s32-75 36-84.5S703 502 724 512c12.5 0 28 126.5 75 96 37.6-24.4 62-112.833 69.5-154 4.667-26.5 18.7-67.8 37.5-21 23.5 58.5 39 129 65 90.5 20.8-30.8 30.17-58.333 38.5-137-1-17.167 39.2-139.5 56-129.5 21 12.5 43.1 87.148 76 51 40.5-44.5 36.83-73.333 53-115" stroke="#4200ff" stroke-width="8"/></g><mask id="A" class="E"><path d="M213 175H495V387H213V175Z"/></mask><g fill="red"><path d="M213 175H495V387H213V175Z" class="I"/><path d="M213 172.5h-2.5v5h2.5v-5zm282 5h2.5v-5H495v5zm-14.1-5h-2.5v5h2.5v-5zm-28.2 5h2.5v-5h-2.5v5zm-28.2-5H422v5h2.5v-5zm-28.2 5h2.5v-5h-2.5v5zm-28.2-5h-2.5v5h2.5v-5zm-28.2 5h2.5v-5h-2.5v5zm-28.2-5h-2.5v5h2.5v-5zm-28.2 5h2.5v-5h-2.5v5zm-28.2-5h-2.5v5h2.5v-5zm-28.2 5h2.5v-5h-2.5v5zm267.9-5h-14.1v5H495v-5zm-42.3 0h-28.2v5h28.2v-5zm-56.4 0h-28.2v5h28.2v-5zm-56.4 0h-28.2v5h28.2v-5zm-56.4 0h-28.2v5h28.2v-5zm-56.4 0H213v5h14.1v-5zM213 170h-5v10h5v-10zm282 10h5v-10h-5v10zm-14.1-10h-5v10h5v-10zm-28.2 10h5v-10h-5v10zm-28.2-10h-5v10h5v-10zm-28.2 10h5v-10h-5v10zm-28.2-10h-5v10h5v-10zm-28.2 10h5v-10h-5v10zm-28.2-10h-5v10h5v-10zm-28.2 10h5v-10h-5v10zm-28.2-10h-5v10h5v-10zm-28.2 10h5v-10h-5v10zM495 170h-14.1v10H495v-10zm-42.3 0h-28.2v10h28.2v-10zm-56.4 0h-28.2v10h28.2v-10zm-56.4 0h-28.2v10h28.2v-10zm-56.4 0h-28.2v10h28.2v-10zm-56.4 0H213v10h14.1v-10z" mask="url(#A)"/></g><mask id="B" class="E"><path d="M659 342h357v205H659V342z"/></mask><g fill="red"><path d="M659 342h357v205H659V342z" class="I"/><path d="M659 339.5h-2.5v5h2.5v-5zm357 5h2.5v-5h-2.5v5zm-14.88-5h-2.495v5h2.495v-5zm-29.745 5h2.5v-5h-2.5v5zm-29.75-5h-2.5v5h2.5v-5zm-29.75 5h2.5v-5h-2.5v5zm-29.75-5h-2.5v5h2.5v-5zm-29.75 5h2.5v-5h-2.5v5zm-29.75-5h-2.5v5h2.5v-5zm-29.75 5h2.5v-5h-2.5v5zm-29.75-5h-2.5v5h2.5v-5zm-29.75 5h2.5v-5h-2.5v5zm-29.75-5h-2.5v5h2.5v-5zm-29.75 5h2.5v-5h-2.5v5zm342.125-5h-14.88v5H1016v-5zm-44.625 0h-29.75v5h29.75v-5zm-59.5 0h-29.75v5h29.75v-5zm-59.5 0h-29.75v5h29.75v-5zm-59.5 0h-29.75v5h29.75v-5zm-59.5 0h-29.75v5h29.75v-5zm-59.5 0H659v5h14.875v-5zM659 337h-5v10h5v-10zm357 10h5v-10h-5v10zm-14.88-10h-4.995v10h4.995v-10zm-29.745 10h5v-10h-5v10zm-29.75-10h-5v10h5v-10zm-29.75 10h5v-10h-5v10zm-29.75-10h-5v10h5v-10zm-29.75 10h5v-10h-5v10zm-29.75-10h-5v10h5v-10zm-29.75 10h5v-10h-5v10zm-29.75-10h-5v10h5v-10zm-29.75 10h5v-10h-5v10zm-29.75-10h-5v10h5v-10zm-29.75 10h5v-10h-5v10zM1016 337h-14.88v10H1016v-10zm-44.625 0h-29.75v10h29.75v-10zm-59.5 0h-29.75v10h29.75v-10zm-59.5 0h-29.75v10h29.75v-10zm-59.5 0h-29.75v10h29.75v-10zm-59.5 0h-29.75v10h29.75v-10zm-59.5 0H659v10h14.875v-10z" mask="url(#B)"/></g><mask id="C" class="E"><path d="M492 232H659V437H492V232Z"/></mask><g fill="red"><path d="M492 232H659V437H492V232Z" class="I"/><path d="M492 229.5h-2.5v5h2.5v-5zm167 5h2.5v-5H659v5zm-13.917-5h-2.5v5h2.5v-5zm-27.833 5h2.5v-5h-2.5v5zm-27.833-5h-2.5v5h2.5v-5zm-27.834 5h2.5v-5h-2.5v5zm-27.833-5h-2.5v5h2.5v-5zm-27.833 5h2.5v-5h-2.5v5zm153.083-5h-13.917v5H659v-5zm-41.75 0h-27.833v5h27.833v-5zm-55.667 0H533.75v5h27.833v-5zm-55.666 0H492v5h13.917v-5zM492 227h-5v10h5v-10zm167 10h5v-10h-5v10zm-13.917-10h-5v10h5v-10zm-27.833 10h5v-10h-5v10zm-27.833-10h-5v10h5v-10zm-27.834 10h5v-10h-5v10zm-27.833-10h-5v10h5v-10zm-27.833 10h5v-10h-5v10zM659 227h-13.917v10H659v-10zm-41.75 0h-27.833v10h27.833v-10zm-55.667 0H533.75v10h27.833v-10zm-55.666 0H492v10h13.917v-10z" mask="url(#C)"/></g><g filter="url(#F)" class="G"><rect x="150" y="492" width="171" height="62" rx="15"/></g><g filter="url(#G)" class="G"><path d="M226 373.667c-7.364 0-13.333 5.969-13.333 13.333s5.969 13.333 13.333 13.333 13.333-5.969 13.333-13.333-5.969-13.333-13.333-13.333zM223.5 387v108h5V387h-5z"/></g><path d="M206.502 536v-25.455h10.192c1.873 0 3.435.278 4.686.833s2.192 1.326 2.821 2.312c.63.978.945 2.105.945 3.381 0 .994-.199 1.868-.597 2.622-.397.746-.944 1.359-1.64 1.84-.688.472-1.475.808-2.362 1.006v.249c.97.041 1.877.315 2.722.82.854.506 1.545 1.214 2.076 2.126.53.903.795 1.98.795 3.231 0 1.351-.335 2.556-1.007 3.617-.662 1.052-1.644 1.885-2.945 2.498s-2.904.92-4.81.92h-10.876zm5.382-4.4h4.388c1.499 0 2.593-.286 3.281-.857.688-.58 1.031-1.351 1.031-2.312 0-.705-.169-1.326-.509-1.865s-.825-.961-1.454-1.267c-.622-.307-1.363-.46-2.225-.46h-4.512v6.761zm0-10.403h3.99c.737 0 1.392-.128 1.964-.385.58-.265 1.035-.638 1.367-1.119.34-.48.509-1.056.509-1.727 0-.92-.327-1.662-.981-2.225-.647-.564-1.567-.845-2.76-.845h-4.089v6.301zm29.901 6.674v-10.962h5.295V536h-5.084v-3.468h-.198a5.63 5.63 0 0 1-2.151 2.697c-.994.68-2.208 1.02-3.641 1.02-1.276 0-2.399-.29-3.369-.87s-1.727-1.405-2.274-2.474c-.539-1.069-.812-2.349-.82-3.84v-12.156h5.294v11.211c.009 1.127.311 2.018.908 2.672s1.396.982 2.398.982a3.81 3.81 0 0 0 1.79-.435c.555-.298 1.003-.737 1.343-1.317.348-.58.517-1.297.509-2.151zm12.799 15.288c-.671 0-1.301-.054-1.889-.161-.58-.1-1.061-.228-1.442-.386l1.193-3.952c.622.19 1.181.294 1.678.311.505.016.94-.1 1.305-.348.373-.249.675-.672.907-1.268l.311-.808-6.848-19.638h5.568l3.952 14.02h.199l3.99-14.02h5.605l-7.42 21.154c-.356 1.028-.841 1.923-1.454 2.685-.605.77-1.371 1.363-2.299 1.777-.928.423-2.047.634-3.356.634z" class="E"/><g filter="url(#H)" class="J"><rect x="94" y="144" width="217" height="62" rx="15"/></g><path d="M124.757 167.985v-3.803h17.919v3.803h-6.68V186h-4.56v-18.015h-6.679zm23.224 18.324c-1.044 0-1.974-.181-2.791-.543a4.5 4.5 0 0 1-1.939-1.63c-.469-.725-.703-1.627-.703-2.706 0-.909.167-1.673.501-2.291s.788-1.115 1.363-1.491 1.229-.661 1.961-.853a14.99 14.99 0 0 1 2.322-.404l2.301-.277c.582-.093 1.005-.228 1.268-.405s.394-.441.394-.789v-.063c0-.675-.213-1.197-.639-1.567-.419-.369-1.016-.553-1.79-.553-.817 0-1.467.181-1.95.543-.482.355-.802.802-.958 1.342l-4.198-.341c.213-.994.632-1.853 1.257-2.578.625-.731 1.431-1.292 2.419-1.683.994-.398 2.145-.597 3.451-.597.909 0 1.779.107 2.61.32.839.213 1.581.543 2.227.991.653.447 1.168 1.022 1.545 1.726.376.696.564 1.53.564 2.503V186h-4.304v-2.269h-.127a4.64 4.64 0 0 1-1.055 1.353c-.44.383-.97.685-1.587.905-.618.213-1.332.32-2.142.32zm1.3-3.132c.668 0 1.257-.132 1.768-.394.512-.27.913-.632 1.204-1.087s.437-.969.437-1.545v-1.736c-.142.092-.337.177-.586.255l-.82.203-.916.16-.831.117c-.533.078-.998.202-1.396.373s-.707.401-.927.692c-.22.284-.33.639-.33 1.066 0 .617.224 1.09.671 1.416.455.32 1.03.48 1.726.48zm15.549-1.886l.01-5.444h.661l5.241-6.211h5.21l-7.042 8.225h-1.076l-3.004 3.43zM160.717 186v-21.818h4.539V186h-4.539zm10.228 0l-4.816-7.127 3.026-3.207L176.261 186h-5.316zm14.017.32c-1.683 0-3.132-.341-4.347-1.023-1.207-.689-2.138-1.662-2.791-2.919-.653-1.264-.98-2.759-.98-4.485 0-1.683.327-3.161.98-4.432s1.573-2.262 2.759-2.972c1.193-.711 2.593-1.066 4.198-1.066 1.079 0 2.084.174 3.015.522a6.69 6.69 0 0 1 2.45 1.545c.703.689 1.25 1.555 1.641 2.599.39 1.037.585 2.252.585 3.644v1.246h-13.817v-2.812h9.545c0-.654-.142-1.232-.426-1.737a3.05 3.05 0 0 0-1.182-1.182c-.497-.291-1.076-.437-1.737-.437-.689 0-1.299.16-1.832.479-.526.313-.938.736-1.236 1.268-.298.526-.451 1.112-.458 1.758v2.674c0 .81.149 1.509.447 2.099.306.589.736 1.044 1.29 1.363s1.21.48 1.97.48a4.29 4.29 0 0 0 1.385-.213c.419-.142.778-.355 1.076-.639s.526-.633.682-1.044l4.198.276c-.213 1.009-.65 1.89-1.311 2.643-.653.745-1.498 1.328-2.535 1.747-1.03.412-2.22.618-3.569.618zm17.501-.32v-21.818h8.608c1.654 0 3.064.316 4.229.948 1.165.625 2.053 1.495 2.663 2.61.618 1.108.927 2.386.927 3.835s-.312 2.728-.937 3.836-1.531 1.97-2.717 2.588c-1.179.618-2.606.927-4.283.927h-5.486v-3.697h4.741c.888 0 1.619-.152 2.194-.458.583-.312 1.016-.742 1.3-1.289.291-.554.437-1.189.437-1.907 0-.724-.146-1.356-.437-1.896-.284-.547-.717-.969-1.3-1.268-.582-.305-1.321-.458-2.216-.458h-3.11V186h-4.613zm19.338 0v-16.364h4.4v2.855h.171c.298-1.015.799-1.782 1.502-2.301.703-.525 1.513-.788 2.429-.788.227 0 .472.014.735.043a5.06 5.06 0 0 1 .692.117v4.027a5.95 5.95 0 0 0-.884-.171 8.06 8.06 0 0 0-1.033-.074c-.668 0-1.265.145-1.79.437a3.21 3.21 0 0 0-1.236 1.193c-.298.511-.447 1.101-.447 1.768V186h-4.539zm18.907.32c-1.654 0-3.085-.352-4.293-1.055-1.2-.71-2.127-1.698-2.78-2.962-.654-1.271-.981-2.745-.981-4.421 0-1.69.327-3.168.981-4.432.653-1.271 1.58-2.258 2.78-2.961 1.208-.711 2.639-1.066 4.293-1.066s3.083.355 4.283 1.066c1.208.703 2.138 1.69 2.791 2.961.654 1.264.98 2.742.98 4.432 0 1.676-.326 3.15-.98 4.421a7.19 7.19 0 0 1-2.791 2.962c-1.2.703-2.628 1.055-4.283 1.055zm.022-3.516c.753 0 1.381-.213 1.885-.639.505-.433.885-1.023 1.14-1.769.263-.745.395-1.594.395-2.546s-.132-1.8-.395-2.546c-.255-.746-.635-1.335-1.14-1.768s-1.132-.65-1.885-.65c-.76 0-1.399.216-1.918.65-.511.433-.898 1.022-1.161 1.768-.256.746-.384 1.594-.384 2.546s.128 1.801.384 2.546c.263.746.65 1.336 1.161 1.769.519.426 1.158.639 1.918.639zm19.783-13.168v3.409h-10.099v-3.409h10.099zM252.725 186v-17.546c0-1.186.231-2.17.693-2.951.469-.781 1.108-1.367 1.918-1.758s1.729-.586 2.759-.586c.696 0 1.331.053 1.907.16l1.299.288-.809 3.409a5.71 5.71 0 0 0-.661-.16 4.09 4.09 0 0 0-.788-.075c-.668 0-1.133.157-1.396.469-.262.305-.394.735-.394 1.289V186h-4.528zm10.561 0v-16.364h4.538V186h-4.538zm2.28-18.473c-.675 0-1.254-.224-1.737-.671-.476-.455-.714-.998-.714-1.63 0-.625.238-1.161.714-1.609.483-.454 1.062-.682 1.737-.682s1.25.228 1.725.682c.483.448.725.984.725 1.609 0 .632-.242 1.175-.725 1.63-.475.447-1.051.671-1.725.671zm14.597 2.109v3.409h-9.854v-3.409h9.854zm-7.617-3.92h4.539v15.256c0 .419.063.745.191.98.128.227.306.387.533.479.234.092.504.139.81.139a3.83 3.83 0 0 0 .639-.054l.49-.096.714 3.378c-.228.071-.547.152-.959.245-.412.099-.913.159-1.502.181-1.094.042-2.053-.103-2.877-.437a4.02 4.02 0 0 1-1.907-1.555c-.454-.704-.678-1.591-.671-2.664v-15.852z" class="E"/><g filter="url(#I)"><rect x="27" y="341" width="164" height="97" rx="15" fill="#777"/></g><path d="M54.053 380H49.11l7.532-21.818h5.945L70.108 380h-4.943L59.7 363.168h-.171L54.053 380zm-.309-8.576h11.676v3.601H53.745v-3.601zm32.109-7.788L80.133 380h-5.114l-5.721-16.364h4.794l3.398 11.708h.171l3.388-11.708h4.805zm3.95 16.641a2.49 2.49 0 0 1-1.811-.746c-.497-.504-.746-1.108-.746-1.811a2.44 2.44 0 0 1 .746-1.79c.504-.497 1.108-.745 1.811-.745.682 0 1.278.248 1.79.745s.767 1.094.767 1.79a2.4 2.4 0 0 1-.362 1.289 2.75 2.75 0 0 1-.927.927c-.383.227-.806.341-1.268.341zM102.09 380v-21.818h8.608c1.654 0 3.064.316 4.229.948 1.165.625 2.053 1.495 2.663 2.61.618 1.108.927 2.386.927 3.835s-.312 2.728-.937 3.836-1.531 1.97-2.717 2.588c-1.179.618-2.606.927-4.283.927h-5.486v-3.697h4.741c.887 0 1.619-.152 2.194-.458.583-.312 1.016-.742 1.3-1.289.291-.554.437-1.189.437-1.907 0-.724-.146-1.356-.437-1.896-.284-.547-.717-.969-1.3-1.268-.582-.305-1.321-.458-2.216-.458h-3.11V380h-4.613zm19.338 0v-16.364h4.4v2.855h.171c.298-1.015.799-1.782 1.502-2.301.703-.525 1.512-.788 2.429-.788.227 0 .472.014.735.043a5.06 5.06 0 0 1 .692.117v4.027a5.95 5.95 0 0 0-.884-.171 8.06 8.06 0 0 0-1.033-.074c-.668 0-1.265.145-1.79.437-.519.284-.931.681-1.236 1.193-.298.511-.447 1.101-.447 1.768V380h-4.539zm12.276 0v-16.364h4.538V380h-4.538zm2.279-18.473c-.674 0-1.253-.224-1.736-.671-.476-.455-.714-.998-.714-1.63 0-.625.238-1.161.714-1.609.483-.454 1.062-.682 1.736-.682a2.41 2.41 0 0 1 1.726.682c.483.448.725.984.725 1.609 0 .632-.242 1.175-.725 1.63a2.43 2.43 0 0 1-1.726.671zm13.288 18.793c-1.676 0-3.118-.356-4.325-1.066-1.201-.717-2.124-1.711-2.77-2.983-.639-1.271-.959-2.734-.959-4.389 0-1.676.323-3.146.969-4.41a7.21 7.21 0 0 1 2.781-2.973c1.2-.717 2.628-1.076 4.283-1.076 1.427 0 2.677.26 3.75.778s1.921 1.246 2.546 2.184.969 2.038 1.033 3.303h-4.282c-.121-.817-.441-1.474-.959-1.971-.512-.505-1.183-.757-2.014-.757-.703 0-1.317.192-1.843.576-.518.376-.923.926-1.214 1.651s-.437 1.601-.437 2.631c0 1.044.142 1.932.426 2.664.291.731.7 1.289 1.225 1.672s1.14.575 1.843.575c.519 0 .984-.106 1.396-.319.419-.213.763-.522 1.033-.927.277-.412.458-.906.544-1.481h4.282c-.071 1.25-.412 2.351-1.023 3.303-.603.944-1.438 1.683-2.503 2.216s-2.326.799-3.782.799zm17.671 0c-1.683 0-3.132-.341-4.346-1.023-1.208-.689-2.138-1.662-2.791-2.919-.654-1.264-.981-2.759-.981-4.485 0-1.683.327-3.161.981-4.432s1.573-2.262 2.759-2.972c1.193-.711 2.592-1.066 4.197-1.066 1.08 0 2.085.174 3.015.522.938.341 1.754.856 2.45 1.545.704.689 1.25 1.555 1.641 2.599.391 1.037.586 2.252.586 3.644v1.246h-13.818v-2.812h9.546c0-.654-.142-1.232-.426-1.737s-.678-.898-1.183-1.182c-.497-.291-1.076-.437-1.736-.437-.689 0-1.3.16-1.833.479a3.37 3.37 0 0 0-1.235 1.268c-.299.526-.451 1.112-.459 1.758v2.674c0 .81.15 1.509.448 2.099a3.27 3.27 0 0 0 1.289 1.363c.554.32 1.211.48 1.971.48.504 0 .966-.071 1.385-.213s.778-.355 1.076-.639.525-.633.682-1.044l4.197.276c-.213 1.009-.65 1.89-1.31 2.643-.654.745-1.499 1.328-2.536 1.747-1.03.412-2.219.618-3.569.618zm-77.948 20.137c-.085-.86-.451-1.527-1.097-2.003s-1.523-.714-2.631-.714c-.753 0-1.388.107-1.907.32-.519.206-.916.493-1.193.863-.27.369-.405.788-.405 1.257-.014.39.067.731.245 1.022a2.55 2.55 0 0 0 .756.757 5.73 5.73 0 0 0 1.108.543c.419.149.867.277 1.342.384l1.96.468c.952.213 1.825.498 2.621.853a7.97 7.97 0 0 1 2.067 1.31 5.45 5.45 0 0 1 1.353 1.832c.327.704.494 1.51.501 2.419-.007 1.335-.348 2.493-1.023 3.473-.668.973-1.634 1.729-2.898 2.269-1.257.533-2.774.799-4.549.799-1.761 0-3.296-.27-4.602-.81-1.3-.539-2.315-1.338-3.047-2.397-.724-1.065-1.104-2.383-1.14-3.952h4.464c.05.731.259 1.342.629 1.832.376.483.877.849 1.502 1.098.632.241 1.346.362 2.141.362.781 0 1.459-.114 2.035-.341.582-.227 1.033-.543 1.353-.948a2.19 2.19 0 0 0 .479-1.396c0-.49-.146-.902-.437-1.236-.284-.334-.703-.618-1.257-.852-.547-.234-1.218-.447-2.014-.639l-2.376-.597c-1.84-.447-3.292-1.147-4.357-2.098s-1.594-2.234-1.587-3.846c-.007-1.321.344-2.476 1.055-3.463.717-.987 1.701-1.758 2.951-2.312s2.67-.83 4.261-.83c1.619 0 3.033.277 4.24.83 1.215.554 2.159 1.325 2.834 2.312s1.023 2.131 1.044 3.431h-4.421zm16.441-.821v3.409H95.58v-3.409h9.855zm-7.617-3.92h4.538v15.256c0 .419.064.745.192.98.128.227.305.387.532.479a2.21 2.21 0 0 0 .81.139 3.83 3.83 0 0 0 .639-.054l.49-.096.714 3.378c-.227.071-.547.152-.959.245a7.77 7.77 0 0 1-1.502.181c-1.094.042-2.052-.103-2.876-.437-.817-.334-1.453-.852-1.907-1.555s-.678-1.591-.671-2.664v-15.852zm15.239 20.593c-1.044 0-1.974-.181-2.791-.543a4.5 4.5 0 0 1-1.939-1.63c-.469-.725-.703-1.627-.703-2.706 0-.909.167-1.673.501-2.291a4.05 4.05 0 0 1 1.363-1.491c.576-.377 1.229-.661 1.961-.853a14.99 14.99 0 0 1 2.322-.404l2.301-.277c.583-.093 1.005-.228 1.268-.405s.394-.441.394-.789v-.063c0-.675-.213-1.197-.639-1.567-.419-.369-1.016-.553-1.79-.553-.817 0-1.466.181-1.949.543-.483.355-.803.802-.959 1.342l-4.198-.341c.213-.994.632-1.853 1.257-2.578.625-.731 1.432-1.292 2.419-1.683.994-.398 2.145-.597 3.452-.597.909 0 1.779.107 2.61.32a6.81 6.81 0 0 1 2.226.991c.654.447 1.168 1.022 1.545 1.726.376.696.565 1.53.565 2.503V416h-4.304v-2.269h-.128a4.64 4.64 0 0 1-1.055 1.353 4.88 4.88 0 0 1-1.587.905c-.618.213-1.332.32-2.142.32zm1.3-3.132c.668 0 1.257-.132 1.769-.394a3.13 3.13 0 0 0 1.203-1.087c.292-.455.437-.969.437-1.545v-1.736c-.142.092-.337.177-.586.255l-.82.203-.916.16-.831.117c-.533.078-.998.202-1.396.373s-.707.401-.927.692c-.22.284-.33.639-.33 1.066 0 .617.224 1.09.671 1.416.455.32 1.03.48 1.726.48zM125.794 416v-16.364h4.399v2.855h.171c.298-1.015.799-1.782 1.502-2.301.703-.525 1.513-.788 2.429-.788.227 0 .472.014.735.043s.494.067.692.117v4.027c-.213-.064-.507-.121-.884-.171a8.06 8.06 0 0 0-1.033-.074c-.668 0-1.264.145-1.79.437a3.22 3.22 0 0 0-1.236 1.193c-.298.511-.447 1.101-.447 1.768V416h-4.538zm21.799-16.364v3.409h-9.854v-3.409h9.854zm-7.617-3.92h4.538v15.256c0 .419.064.745.192.98.128.227.305.387.533.479a2.2 2.2 0 0 0 .809.139 3.85 3.85 0 0 0 .64-.054l.49-.096.713 3.378a13.17 13.17 0 0 1-.958.245c-.412.099-.913.159-1.503.181-1.093.042-2.052-.103-2.876-.437-.817-.334-1.452-.852-1.907-1.555s-.678-1.591-.671-2.664v-15.852z" class="E"/><g filter="url(#J)"><rect x="978" y="496" width="164" height="97" rx="15" fill="#777"/></g><path d="M1005.05 535h-4.94l7.53-21.818h5.95l7.52 21.818h-4.95l-5.46-16.832h-.17L1005.05 535zm-.31-8.576h11.68v3.601h-11.68v-3.601zm32.11-7.788L1031.13 535h-5.11l-5.72-16.364h4.79l3.4 11.708h.17l3.39-11.708h4.8zm3.95 16.641a2.5 2.5 0 0 1-1.81-.746 2.51 2.51 0 0 1-.74-1.811c0-.696.25-1.292.74-1.79a2.5 2.5 0 0 1 1.81-.745 2.47 2.47 0 0 1 1.79.745c.51.498.77 1.094.77 1.79 0 .469-.12.899-.36 1.289a2.84 2.84 0 0 1-.93.927 2.42 2.42 0 0 1-1.27.341zm12.29-.277v-21.818h8.61c1.65 0 3.06.316 4.23.948 1.16.625 2.05 1.495 2.66 2.61.62 1.108.93 2.386.93 3.835s-.32 2.728-.94 3.836c-.63 1.107-1.53 1.97-2.72 2.588-1.18.618-2.6.927-4.28.927h-5.49v-3.697h4.74c.89 0 1.62-.152 2.2-.458a3.08 3.08 0 0 0 1.3-1.289c.29-.554.44-1.189.44-1.907 0-.724-.15-1.356-.44-1.896-.29-.547-.72-.969-1.3-1.268-.58-.305-1.32-.458-2.22-.458h-3.11V535h-4.61zm19.34 0v-16.364h4.4v2.855h.17c.3-1.015.8-1.782 1.5-2.301.7-.525 1.51-.788 2.43-.788.23 0 .47.014.73.043.27.028.5.067.7.117v4.027c-.22-.064-.51-.121-.89-.171-.37-.049-.72-.074-1.03-.074-.67 0-1.26.145-1.79.437-.52.284-.93.681-1.24 1.193-.29.511-.44 1.101-.44 1.768V535h-4.54zm12.27 0v-16.364h4.54V535h-4.54zm2.28-18.473c-.67 0-1.25-.224-1.73-.671-.48-.455-.72-.998-.72-1.63 0-.625.24-1.161.72-1.609.48-.454 1.06-.682 1.73-.682.68 0 1.25.228 1.73.682.48.448.72.984.72 1.609 0 .632-.24 1.175-.72 1.63-.48.447-1.05.671-1.73.671zm13.29 18.793c-1.68 0-3.12-.356-4.32-1.066-1.2-.717-2.13-1.711-2.77-2.983s-.96-2.734-.96-4.389c0-1.676.32-3.146.97-4.41.65-1.272 1.58-2.262 2.78-2.973 1.2-.717 2.62-1.076 4.28-1.076 1.43 0 2.68.26 3.75.778a6.32 6.32 0 0 1 2.55 2.184c.62.937.97 2.038 1.03 3.303h-4.28c-.12-.817-.44-1.474-.96-1.971-.51-.505-1.18-.757-2.02-.757-.7 0-1.31.192-1.84.576-.52.376-.92.926-1.21 1.651s-.44 1.601-.44 2.631c0 1.044.14 1.932.43 2.664s.7 1.289 1.22 1.672c.53.384 1.14.575 1.84.575.52 0 .99-.106 1.4-.319a2.68 2.68 0 0 0 1.03-.927c.28-.412.46-.906.55-1.481h4.28c-.07 1.25-.41 2.351-1.02 3.303-.61.944-1.44 1.683-2.51 2.216-1.06.532-2.32.799-3.78.799zm17.67 0c-1.68 0-3.13-.341-4.34-1.023-1.21-.689-2.14-1.662-2.8-2.919-.65-1.264-.98-2.759-.98-4.485 0-1.683.33-3.161.98-4.432a7.33 7.33 0 0 1 2.76-2.972c1.2-.711 2.6-1.066 4.2-1.066 1.08 0 2.09.174 3.02.522.93.341 1.75.856 2.45 1.545s1.25 1.555 1.64 2.599c.39 1.037.58 2.252.58 3.644v1.246h-13.81v-2.812h9.54c0-.654-.14-1.232-.43-1.737a2.98 2.98 0 0 0-1.18-1.182c-.49-.291-1.07-.437-1.73-.437a3.54 3.54 0 0 0-1.84.479 3.41 3.41 0 0 0-1.23 1.268c-.3.526-.45 1.112-.46 1.758v2.674c0 .81.15 1.509.45 2.099s.73 1.044 1.29 1.363c.55.32 1.21.48 1.97.48.5 0 .96-.071 1.38-.213s.78-.355 1.08-.639.52-.633.68-1.044l4.2.276c-.22 1.009-.65 1.89-1.31 2.643-.66.745-1.5 1.328-2.54 1.747-1.03.412-2.22.618-3.57.618zm-81.1 35.68v-21.818h14.71v3.803h-10.09v5.199h9.33v3.803h-9.33v5.21h10.13V571h-14.75zm22.83-9.46V571h-4.54v-16.364h4.32v2.887h.2a4.51 4.51 0 0 1 1.82-2.258c.85-.561 1.88-.842 3.1-.842 1.13 0 2.12.249 2.97.746.84.497 1.5 1.207 1.97 2.131.47.916.7 2.01.7 3.281V571h-4.53v-9.609c0-1.002-.25-1.783-.77-2.344-.52-.568-1.23-.852-2.14-.852-.61 0-1.15.131-1.62.394a2.75 2.75 0 0 0-1.09 1.15c-.25.498-.39 1.098-.39 1.801zm20.15 9.726c-1.24 0-2.37-.319-3.38-.958-1-.647-1.79-1.595-2.38-2.845-.59-1.257-.88-2.798-.88-4.624 0-1.875.31-3.433.91-4.676.6-1.25 1.41-2.184 2.41-2.802a6.16 6.16 0 0 1 3.31-.938c.92 0 1.68.157 2.29.469.62.305 1.12.689 1.49 1.151.39.454.68.902.88 1.342h.13v-8.203h4.53V571h-4.47v-2.621h-.19c-.22.455-.52.906-.91 1.353-.38.441-.88.806-1.5 1.098-.61.291-1.36.436-2.24.436zm1.44-3.611c.73 0 1.35-.199 1.85-.597.51-.405.9-.969 1.17-1.694.28-.724.42-1.573.42-2.546s-.14-1.818-.41-2.535-.66-1.272-1.17-1.662-1.13-.586-1.86-.586c-.75 0-1.38.202-1.89.607s-.9.966-1.16 1.683-.39 1.549-.39 2.493c0 .952.13 1.794.39 2.525.27.724.66 1.293 1.16 1.705.51.404 1.14.607 1.89.607z" class="E"/><g filter="url(#K)" class="G"><rect x="347" y="604" width="171" height="62" rx="15"/></g><g filter="url(#L)" class="G"><path d="M488 482.667c-7.364 0-13.333 5.969-13.333 13.333s5.969 13.333 13.333 13.333 13.333-5.969 13.333-13.333-5.969-13.333-13.333-13.333zM485.5 496v108h5V496h-5z"/></g><path d="M388.566 648h-9.023v-25.455h9.098c2.56 0 4.764.51 6.612 1.529 1.848 1.011 3.269 2.465 4.263 4.363 1.003 1.897 1.504 4.168 1.504 6.811 0 2.651-.501 4.93-1.504 6.836-.994 1.906-2.423 3.368-4.288 4.387-1.856 1.019-4.076 1.529-6.662 1.529zm-3.641-4.611h3.418c1.591 0 2.929-.282 4.014-.845 1.094-.572 1.914-1.455 2.461-2.648.555-1.201.833-2.751.833-4.648 0-1.881-.278-3.418-.833-4.611-.547-1.193-1.363-2.072-2.448-2.635s-2.424-.845-4.015-.845h-3.43v16.232zm42.541-11.932h-5.444c-.099-.704-.302-1.33-.609-1.877-.307-.555-.7-1.027-1.181-1.417a5.21 5.21 0 0 0-1.665-.895c-.622-.207-1.297-.31-2.026-.31-1.318 0-2.465.327-3.443.982-.978.646-1.736 1.591-2.274 2.833-.539 1.235-.808 2.735-.808 4.5 0 1.814.269 3.339.808 4.574.546 1.234 1.309 2.166 2.286 2.796s2.109.945 3.394.945c.72 0 1.387-.096 2.001-.286.621-.191 1.172-.468 1.653-.833.48-.373.878-.824 1.193-1.355.323-.53.547-1.135.671-1.814l5.444.025c-.141 1.168-.493 2.295-1.057 3.38-.555 1.077-1.305 2.043-2.249 2.896-.936.845-2.055 1.517-3.356 2.014-1.293.489-2.755.733-4.387.733-2.271 0-4.301-.514-6.091-1.541-1.781-1.028-3.19-2.515-4.225-4.462-1.028-1.947-1.542-4.305-1.542-7.072 0-2.776.522-5.138 1.566-7.085s2.461-3.43 4.251-4.449c1.79-1.028 3.803-1.542 6.041-1.542 1.474 0 2.842.208 4.101.622 1.268.414 2.391 1.019 3.368 1.815a9.33 9.33 0 0 1 2.387 2.895c.621 1.144 1.019 2.453 1.193 3.928zM435.234 648h-5.767l8.787-25.455h6.936L453.965 648h-5.768l-6.376-19.638h-.198L435.234 648zm-.36-10.005h13.622v4.201h-13.622v-4.201zm31.7 10.005l4.176-25.455h3.977L470.551 648h-3.977zm-11.398-6.314l.659-3.977h19.886l-.658 3.977h-19.887zm2.449 6.314l4.176-25.455h3.977L461.602 648h-3.977zm-.994-15.163l.671-3.978h19.886l-.671 3.978h-19.886zm34.052-10.292V648h-5.382v-20.346h-.149l-5.829 3.654v-4.773l6.301-3.99h5.059z" class="E"/><g filter="url(#M)" class="G"><rect x="583" y="807" width="171" height="62" rx="15"/></g><g filter="url(#N)" class="G"><path d="M659 688.667c-7.364 0-13.333 5.969-13.333 13.333s5.969 13.333 13.333 13.333 13.333-5.969 13.333-13.333-5.969-13.333-13.333-13.333zM656.5 702v108h5V702h-5z"/></g><path d="M620.105 851h-9.023v-25.455h9.098c2.56 0 4.764.51 6.612 1.529 1.848 1.011 3.269 2.465 4.263 4.363 1.003 1.897 1.504 4.168 1.504 6.811 0 2.651-.501 4.93-1.504 6.836-.994 1.906-2.423 3.368-4.288 4.387-1.856 1.019-4.076 1.529-6.662 1.529zm-3.641-4.611h3.418c1.591 0 2.929-.282 4.014-.845 1.094-.572 1.914-1.455 2.461-2.648.555-1.201.833-2.751.833-4.648 0-1.881-.278-3.418-.833-4.611-.547-1.193-1.363-2.072-2.448-2.635s-2.424-.845-4.015-.845h-3.43v16.232zm42.541-11.932h-5.444c-.099-.704-.302-1.33-.609-1.877a4.77 4.77 0 0 0-1.181-1.417 5.21 5.21 0 0 0-1.665-.895c-.622-.207-1.297-.31-2.026-.31-1.318 0-2.465.327-3.443.982-.978.646-1.736 1.591-2.274 2.833-.539 1.235-.808 2.735-.808 4.5 0 1.814.269 3.339.808 4.574.546 1.234 1.309 2.166 2.287 2.796s2.108.945 3.393.945c.721 0 1.388-.096 2.001-.286.621-.191 1.172-.468 1.653-.833.48-.373.878-.824 1.193-1.355.323-.53.547-1.135.671-1.814l5.444.025c-.141 1.168-.493 2.295-1.056 3.38-.556 1.077-1.305 2.043-2.25 2.896-.936.845-2.055 1.517-3.356 2.014-1.293.489-2.755.733-4.387.733-2.271 0-4.301-.514-6.091-1.541-1.781-1.028-3.19-2.515-4.225-4.462-1.028-1.947-1.542-4.305-1.542-7.072 0-2.776.522-5.138 1.566-7.085s2.461-3.43 4.251-4.449c1.79-1.028 3.803-1.542 6.041-1.542 1.475 0 2.842.208 4.101.622 1.268.414 2.391 1.019 3.368 1.815a9.33 9.33 0 0 1 2.387 2.895c.621 1.144 1.019 2.453 1.193 3.928zM666.773 851h-5.767l8.787-25.455h6.936L685.504 851h-5.767l-6.377-19.638h-.198L666.773 851zm-.36-10.005h13.622v4.201h-13.622v-4.201zm31.7 10.005l4.176-25.455h3.977L702.09 851h-3.977zm-11.398-6.314l.659-3.977h19.887l-.659 3.977h-19.887zm2.449 6.314l4.176-25.455h3.977L693.141 851h-3.977zm-.994-15.163l.671-3.978h19.886l-.671 3.978H688.17zM711.148 851v-3.878l9.06-8.389 1.939-2.014c.531-.596.933-1.181 1.206-1.752.273-.58.41-1.206.41-1.877 0-.746-.17-1.388-.509-1.927-.34-.547-.804-.965-1.393-1.255-.588-.298-1.255-.447-2.001-.447-.778 0-1.458.157-2.038.472a3.25 3.25 0 0 0-1.342 1.355c-.315.588-.473 1.288-.473 2.1h-5.108c0-1.665.377-3.111 1.131-4.338s1.811-2.175 3.17-2.846 2.924-1.007 4.698-1.007c1.823 0 3.409.324 4.76.97 1.359.638 2.415 1.525 3.169 2.66s1.131 2.436 1.131 3.902c0 .962-.19 1.91-.571 2.847-.373.936-1.04 1.976-2.001 3.119-.962 1.135-2.316 2.499-4.065 4.089l-3.716 3.642v.174h10.689v4.4h-18.146z" class="E"/><g stroke="#218000" stroke-width="5" stroke-dasharray="30 30"><path d="M213 387.5h279m3 51h164m-.022 112.08l346.002-3.08"/></g><g filter="url(#O)"><path d="M1156.37 346.16c-5.08-28.971-32.45-57.719-61.14-64.211-19.77-4.473-35 2.788-40.9 17.214l-3.11 6.962c6.13-12.914 20.45-19.261 38.84-15.101 27.71 6.272 54.16 34.045 59.07 62.034 2.54 14.472-1.18 26.167-9.19 33.222l4.78-4.024c9.76-7.032 14.5-19.881 11.65-36.096z" fill="url(#V)"/><use xlink:href="#AK" fill="url(#W)"/><use xlink:href="#AK" fill="url(#X)"/><use xlink:href="#AL" fill="url(#Y)" class="F"/><use xlink:href="#AL" fill="url(#Z)" class="F"/><path d="M1133.28 349.473c3.36 19.15-9.29 31.196-28.25 26.905s-37.06-23.294-40.42-42.444 9.29-31.197 28.25-26.906c18.97 4.291 37.06 23.294 40.42 42.445z" fill="url(#a)"/><use xlink:href="#AM" fill="url(#b)" class="F"/><use xlink:href="#AM" fill="url(#c)" class="F"/></g><g filter="url(#P)"><path d="M1251.97 311.514c-11.02-24.563-40.01-53.09-64.74-63.717-11.52-4.948-20.08-5.143-24.84-1.458l-1.73 1.729L1147.68 261c2.46-2.047 6.01-2.994 10.52-2.705 4.1.262 9 1.543 14.59 3.945 24.73 10.627 53.71 39.154 64.73 63.716 2.54 5.649 3.9 10.596 4.2 14.736.34 4.855-.78 8.6-3.2 11.066l14.05-14.061c4.87-4.441 5.06-13.56-.6-26.183z" fill="url(#d)"/><path d="M1237.52 325.958c11.02 24.562-.1 35.86-24.83 25.233-24.74-10.627-53.72-39.154-64.74-63.716s.1-35.86 24.84-25.233c24.73 10.626 53.71 39.153 64.73 63.716z" fill="url(#e)"/><use xlink:href="#AN" fill="url(#f)" class="F"/><use xlink:href="#AN" fill="url(#g)" class="F"/><path d="M1223.73 320.034c7.63 17-.07 24.82-17.19 17.464s-37.18-27.099-44.8-44.099c-7.63-17 .07-24.82 17.19-17.465s37.18 27.1 44.8 44.1z" fill="url(#h)"/><use xlink:href="#AO" fill="url(#i)" class="F"/><use xlink:href="#AO" fill="url(#j)" class="F"/></g><g filter="url(#Q)"><use xlink:href="#AP" fill="#8f8f8f"/><use xlink:href="#AP" fill="url(#k)"/><use xlink:href="#AP" fill="url(#l)"/></g><g filter="url(#R)"><path d="M100.274 698.743C99.7992 699.212 99.3315 699.688 98.871 700.172C88.1849 711.41 81.4321 726.828 80.5371 744.868C79.4555 766.673 87.1302 788.224 100.388 805.452C113.645 822.68 132.512 835.618 153.866 840.157C168.883 843.349 183.152 841.965 195.449 836.902C196.134 836.62 196.813 836.326 197.486 836.021L185.799 844.044L185.793 844.049C171.592 854.029 152.984 858.066 132.895 853.796C111.779 849.308 93.0694 836.497 79.9052 819.391C66.7409 802.284 59.1491 780.917 60.2186 759.357C61.3556 736.437 72.0422 717.961 88.0586 707.024C88.0589 707.024 88.0592 707.023 88.0595 707.023L100.274 698.743Z" fill="url(#m)" stroke="url(#n)"/><circle r="78.116" transform="matrix(.978148 .207912 -.049547 .998772 157.964 761.145)" fill="url(#o)"/><circle r="78.116" transform="matrix(.978148 .207912 -.049547 .998772 157.964 761.145)" stroke="url(#p)"/><circle r="78.116" transform="matrix(.978148 .207912 -.049547 .998772 157.964 761.145)" stroke="url(#q)"/><circle r="65.755" transform="matrix(.978148 .207912 -.049547 .998772 157.964 761.145)" fill="#222"/><circle r="65.755" transform="matrix(.978148 .207912 -.049547 .998772 157.964 761.145)" stroke="url(#r)" stroke-width="3"/><circle r="65.755" transform="matrix(.978148 .207912 -.049547 .998772 157.964 761.145)" stroke="url(#s)" stroke-width="3"/><circle r="58.748" transform="matrix(.978148 .207912 -.049547 .998772 157.963 761.145)" fill="url(#t)"/><circle r="58.748" transform="matrix(.978148 .207912 -.049547 .998772 157.963 761.145)" stroke="url(#u)" stroke-width="2"/><circle r="58.748" transform="matrix(.978148 .207912 -.049547 .998772 157.963 761.145)" stroke="url(#v)" stroke-width="2"/><g style="mix-blend-mode:color-dodge"><circle r="58.748" transform="matrix(.978148 .207912 -.049547 .998772 157.963 761.145)" fill="url(#w)"/></g><g filter="url(#S)"><use xlink:href="#AQ" fill="url(#x)"/><use xlink:href="#AQ" fill="#000" class="H"/><use xlink:href="#AR" fill="url(#y)"/><use xlink:href="#AR" fill="#000" class="H"/><path d="M167.489 727.987l-1.32 26.594 2.353-1.61 1.216-24.506.103-2.088-2.352 1.61z" fill="url(#z)"/><path d="M167.489 727.987l-1.32 26.594 2.353-1.61 1.216-24.506.103-2.088-2.352 1.61z" fill="#000" class="H"/><path d="M166.169 754.581l26.045 5.536 2.353-1.61-2.249-.478-23.796-5.058-2.353 1.61z" fill="url(#AA)"/><path d="M166.169 754.581l26.045 5.536 2.353-1.61-2.249-.478-23.796-5.058-2.353 1.61z" fill="#000" class="H"/><use xlink:href="#AS" fill="url(#AB)"/><use xlink:href="#AS" fill="#000" class="H"/></g><path d="M186.997 787.715c4.249-5.196 6.709-11.843 7.069-19.102l-26.097-5.547c-.098 1.988-.772 3.809-1.936 5.233s-2.765 2.385-4.602 2.763-3.826.157-5.717-.637-3.597-2.124-4.905-3.823-2.156-3.689-2.439-5.72.012-4.011.849-5.689a7.96 7.96 0 0 1 3.85-3.741c1.673-.761 3.606-.946 5.554-.532l1.322-26.647c-7.109-1.511-14.165-.836-20.276 1.941s-11.002 7.529-14.055 13.657-4.131 13.355-3.097 20.769 4.132 14.681 8.904 20.882 11.003 11.058 17.905 13.956 14.165 3.707 20.87 2.325 12.553-4.892 16.801-10.088zm8.89-55.802l-26.045-5.536-1.32 26.594 26.045 5.536 1.32-26.594z" fill="url(#AC)" class="F"/><g style="mix-blend-mode:color-dodge" opacity=".5"><circle r="78.616" transform="matrix(.978148 .207912 -.049547 .998772 157.964 761.145)" fill="url(#AD)" fill-opacity=".3"/></g></g><path d="M396.051 101h-12.89V64.636h12.997c3.657 0 6.806.728 9.446 2.184 2.639 1.444 4.669 3.522 6.09 6.232 1.432 2.711 2.148 5.954 2.148 9.73 0 3.788-.716 7.043-2.148 9.766-1.421 2.722-3.462 4.812-6.126 6.268-2.651 1.456-5.824 2.184-9.517 2.184zm-5.202-6.587h4.883c2.272 0 4.184-.402 5.735-1.207 1.562-.817 2.734-2.078 3.515-3.782.793-1.716 1.19-3.93 1.19-6.641 0-2.687-.397-4.883-1.19-6.587-.781-1.705-1.947-2.959-3.498-3.764s-3.462-1.207-5.735-1.207h-4.9v23.189zm60.773-17.045h-7.777c-.142-1.006-.432-1.9-.87-2.681-.438-.793-1-1.468-1.687-2.024s-1.479-.983-2.379-1.278c-.888-.296-1.853-.444-2.894-.444-1.882 0-3.522.468-4.919 1.403-1.396.923-2.479 2.273-3.249 4.048-.769 1.764-1.154 3.906-1.154 6.428 0 2.592.385 4.77 1.154 6.534.781 1.764 1.87 3.095 3.267 3.995s3.013 1.349 4.847 1.349c1.03 0 1.983-.136 2.859-.408.888-.272 1.675-.669 2.362-1.19.686-.533 1.254-1.178 1.704-1.935.462-.758.781-1.622.959-2.592l7.777.035c-.201 1.669-.704 3.279-1.509 4.83-.793 1.539-1.865 2.918-3.214 4.137-1.338 1.207-2.936 2.166-4.794 2.877-1.847.698-3.936 1.047-6.268 1.047-3.243 0-6.143-.734-8.7-2.201-2.545-1.468-4.557-3.593-6.037-6.374-1.468-2.782-2.202-6.149-2.202-10.103 0-3.966.746-7.339 2.237-10.121s3.516-4.901 6.073-6.356c2.557-1.468 5.433-2.202 8.629-2.202 2.107 0 4.06.296 5.86.888 1.811.592 3.415 1.456 4.811 2.592 1.397 1.124 2.533 2.504 3.409 4.137.888 1.633 1.456 3.504 1.705 5.611zM462.719 101h-8.238l12.553-36.364h9.908L489.477 101h-8.239l-9.108-28.054h-.284L462.719 101zm-.515-14.293h19.461v6.001h-19.461v-6.001zm41.837-15.732v-6.339h29.865v6.339h-11.133V101h-7.599V70.975h-11.133zM535.85 101V73.727h7.334v4.758h.284c.497-1.693 1.331-2.971 2.503-3.835 1.172-.876 2.522-1.314 4.049-1.314a11.44 11.44 0 0 1 1.225.071c.438.047.822.112 1.154.195v6.712c-.355-.106-.847-.201-1.474-.284a13.24 13.24 0 0 0-1.722-.124c-1.113 0-2.107.243-2.983.728a5.36 5.36 0 0 0-2.06 1.989c-.497.852-.746 1.835-.746 2.947V101h-7.564zm27.455.515c-1.74 0-3.29-.302-4.652-.906-1.361-.615-2.438-1.521-3.231-2.716-.782-1.207-1.172-2.711-1.172-4.51 0-1.515.278-2.788.834-3.818a6.76 6.76 0 0 1 2.273-2.486c.959-.627 2.048-1.101 3.267-1.42 1.231-.32 2.521-.544 3.871-.675 1.586-.166 2.864-.32 3.835-.462.971-.154 1.675-.379 2.113-.675s.657-.734.657-1.314v-.106c0-1.125-.355-1.995-1.065-2.61-.699-.616-1.693-.923-2.983-.923-1.362 0-2.445.302-3.25.906-.805.592-1.337 1.338-1.598 2.237l-6.995-.568c.355-1.657 1.053-3.09 2.095-4.297 1.041-1.219 2.385-2.154 4.03-2.805 1.658-.663 3.575-.994 5.753-.994a17.45 17.45 0 0 1 4.35.533c1.397.355 2.634.906 3.711 1.651a8.03 8.03 0 0 1 2.575 2.876c.627 1.16.941 2.551.941 4.173V101h-7.173v-3.782h-.213c-.438.852-1.024 1.604-1.758 2.255-.734.639-1.616 1.142-2.646 1.509-1.03.355-2.219.533-3.569.533zm2.166-5.22c1.113 0 2.096-.219 2.948-.657.852-.45 1.521-1.053 2.006-1.811s.728-1.616.728-2.575v-2.894c-.237.154-.562.296-.976.426-.403.118-.859.231-1.368.337l-1.527.266-1.384.195c-.888.13-1.664.337-2.326.621s-1.178.669-1.545 1.154c-.367.473-.551 1.065-.551 1.776 0 1.03.373 1.817 1.119 2.361.758.533 1.716.799 2.876.799zm29.111 5.149c-2.072 0-3.948-.533-5.629-1.598-1.669-1.077-2.994-2.657-3.977-4.741-.971-2.095-1.456-4.664-1.456-7.706 0-3.125.503-5.723 1.509-7.795 1.006-2.083 2.344-3.64 4.013-4.67a10.28 10.28 0 0 1 5.522-1.562c1.527 0 2.8.26 3.818.781 1.029.509 1.858 1.148 2.485 1.918.64.758 1.125 1.503 1.456 2.237h.231V64.636h7.546V101h-7.457v-4.368h-.32c-.355.758-.858 1.509-1.509 2.255-.639.734-1.474 1.344-2.503 1.829-1.018.485-2.261.728-3.729.728zm2.397-6.019c1.219 0 2.249-.331 3.089-.994.853-.675 1.504-1.616 1.953-2.823.462-1.207.693-2.622.693-4.244s-.225-3.03-.675-4.226-1.101-2.119-1.953-2.77-1.888-.977-3.107-.977c-1.243 0-2.291.337-3.143 1.012s-1.497 1.61-1.935 2.805-.657 2.581-.657 4.155c0 1.586.219 2.989.657 4.208.45 1.207 1.095 2.154 1.935 2.841.852.675 1.9 1.012 3.143 1.012zm19.34 5.575V73.727h7.564V101h-7.564zm3.8-30.788c-1.125 0-2.089-.373-2.894-1.119-.793-.758-1.19-1.663-1.19-2.717 0-1.042.397-1.935 1.19-2.681a4.07 4.07 0 0 1 2.894-1.136 4.01 4.01 0 0 1 2.876 1.136c.805.746 1.208 1.639 1.208 2.681 0 1.053-.403 1.959-1.208 2.717-.793.746-1.752 1.119-2.876 1.119zm17.387 15.021V101h-7.564V73.727h7.209v4.812h.32a7.6 7.6 0 0 1 3.036-3.764c1.42-.935 3.143-1.403 5.167-1.403 1.894 0 3.545.414 4.954 1.243s2.503 2.012 3.284 3.551c.782 1.527 1.172 3.35 1.172 5.469V101h-7.564V84.984c.012-1.669-.414-2.971-1.278-3.906-.864-.947-2.054-1.42-3.569-1.42-1.018 0-1.917.219-2.699.657-.769.438-1.373 1.077-1.811 1.918-.426.829-.645 1.829-.657 3.001zm35.827 26.562c-2.451 0-4.552-.337-6.304-1.012-1.74-.662-3.125-1.568-4.154-2.716s-1.699-2.439-2.007-3.871l6.996-.941c.213.544.55 1.053 1.012 1.527s1.071.852 1.829 1.136c.769.296 1.704.444 2.805.444 1.646 0 3.001-.402 4.066-1.207 1.078-.793 1.616-2.125 1.616-3.995v-4.989h-.319c-.332.757-.829 1.474-1.492 2.148s-1.515 1.225-2.557 1.651-2.284.639-3.728.639c-2.048 0-3.913-.473-5.594-1.42-1.669-.959-3-2.421-3.995-4.386-.982-1.977-1.473-4.474-1.473-7.493 0-3.09.503-5.67 1.509-7.742s2.344-3.622 4.013-4.652c1.681-1.03 3.521-1.545 5.522-1.545 1.527 0 2.805.26 3.835.781 1.03.509 1.858 1.148 2.486 1.918.639.758 1.13 1.503 1.474 2.237h.284v-4.581h7.51v27.539c0 2.32-.568 4.262-1.704 5.824s-2.711 2.735-4.723 3.516c-2.001.793-4.303 1.189-6.907 1.189zm.16-16.867c1.219 0 2.249-.302 3.089-.906.852-.616 1.503-1.492 1.953-2.628.462-1.148.693-2.521.693-4.119s-.225-2.983-.675-4.155c-.45-1.184-1.101-2.101-1.953-2.752s-1.888-.977-3.107-.977c-1.243 0-2.291.337-3.143 1.012-.852.663-1.498 1.586-1.936 2.77s-.657 2.551-.657 4.102c0 1.574.219 2.936.657 4.084.45 1.136 1.095 2.018 1.936 2.646.852.615 1.9.923 3.143.923zm50.634-19.833c-.142-1.432-.751-2.545-1.829-3.338s-2.539-1.19-4.385-1.19c-1.255 0-2.314.177-3.178.533-.865.343-1.527.823-1.989 1.438a3.46 3.46 0 0 0-.675 2.095c-.023.651.113 1.219.409 1.705.307.485.728.906 1.26 1.261a9.58 9.58 0 0 0 1.847.906c.698.248 1.444.462 2.237.639l3.267.781c1.586.355 3.042.829 4.368 1.42s2.474 1.32 3.445 2.184a9.09 9.09 0 0 1 2.255 3.054c.544 1.172.822 2.515.834 4.03-.012 2.225-.58 4.155-1.704 5.788-1.113 1.622-2.723 2.882-4.83 3.782-2.095.888-4.622 1.332-7.582 1.332-2.935 0-5.492-.45-7.67-1.35-2.166-.899-3.859-2.231-5.078-3.995-1.208-1.776-1.841-3.971-1.9-6.587h7.44c.082 1.219.432 2.237 1.047 3.054.627.805 1.462 1.414 2.504 1.829 1.053.402 2.243.604 3.569.604 1.302 0 2.432-.189 3.391-.568.971-.379 1.722-.906 2.255-1.58s.799-1.45.799-2.326c0-.817-.243-1.503-.728-2.06-.474-.556-1.172-1.03-2.095-1.42-.912-.391-2.03-.746-3.356-1.065l-3.96-.994c-3.065-.746-5.486-1.912-7.262-3.498s-2.657-3.723-2.645-6.41c-.012-2.202.574-4.125 1.757-5.771 1.196-1.645 2.835-2.93 4.919-3.853s4.451-1.385 7.102-1.385c2.699 0 5.055.462 7.067 1.385 2.024.923 3.598 2.208 4.723 3.853s1.704 3.551 1.74 5.717h-7.369zm27.402-1.367v5.682h-16.424v-5.682h16.424zm-12.696-6.534h7.564v25.426c0 .698.107 1.243.32 1.633a1.76 1.76 0 0 0 .888.799c.39.154.84.231 1.349.231.355 0 .71-.03 1.066-.089l.816-.16 1.19 5.629c-.379.118-.912.254-1.598.408-.687.166-1.521.266-2.504.302-1.823.071-3.421-.172-4.794-.728-1.361-.556-2.42-1.421-3.178-2.592s-1.13-2.652-1.119-4.439v-26.42zM756.456 101V73.727h7.333v4.758h.284c.497-1.693 1.332-2.971 2.504-3.835 1.172-.876 2.521-1.314 4.048-1.314.379 0 .787.024 1.225.071s.823.112 1.154.195v6.712c-.355-.106-.846-.201-1.473-.284s-1.202-.124-1.723-.124c-1.112 0-2.107.243-2.983.728a5.36 5.36 0 0 0-2.059 1.989c-.498.852-.746 1.835-.746 2.947V101h-7.564zm27.455.515c-1.74 0-3.291-.302-4.652-.906-1.362-.615-2.439-1.521-3.232-2.716-.781-1.207-1.172-2.711-1.172-4.51 0-1.515.278-2.788.835-3.818s1.314-1.858 2.273-2.486 2.047-1.101 3.267-1.42a24.9 24.9 0 0 1 3.87-.675c1.586-.166 2.865-.32 3.836-.462.97-.154 1.675-.379 2.112-.675s.657-.734.657-1.314v-.106c0-1.125-.355-1.995-1.065-2.61-.698-.616-1.693-.923-2.983-.923-1.361 0-2.444.302-3.249.906-.805.592-1.338 1.338-1.598 2.237l-6.996-.568c.355-1.657 1.054-3.09 2.095-4.297 1.042-1.219 2.385-2.154 4.031-2.805 1.657-.663 3.575-.994 5.753-.994a17.45 17.45 0 0 1 4.35.533c1.397.355 2.634.906 3.711 1.651a8.02 8.02 0 0 1 2.574 2.876c.628 1.16.941 2.551.941 4.173V101h-7.173v-3.782h-.213c-.438.852-1.024 1.604-1.758 2.255-.734.639-1.616 1.142-2.645 1.509-1.03.355-2.22.533-3.569.533zm2.166-5.22c1.113 0 2.095-.219 2.947-.657.853-.45 1.521-1.053 2.007-1.811s.728-1.616.728-2.575v-2.894c-.237.154-.563.296-.977.426-.402.118-.858.231-1.367.337l-1.527.266-1.385.195c-.888.13-1.663.337-2.326.621s-1.178.669-1.545 1.154c-.367.473-.55 1.065-.55 1.776 0 1.03.373 1.817 1.118 2.361.758.533 1.717.799 2.877.799zm33.567-22.567v5.682H803.22v-5.682h16.424zm-12.695-6.534h7.564v25.426c0 .698.106 1.243.319 1.633a1.76 1.76 0 0 0 .888.799c.391.154.84.231 1.349.231.356 0 .711-.03 1.066-.089l.817-.16 1.189 5.629c-.379.118-.911.254-1.598.408-.686.166-1.521.266-2.503.302-1.823.071-3.421-.172-4.794-.728-1.362-.556-2.421-1.421-3.179-2.592s-1.13-2.652-1.118-4.439v-26.42zm29.758 34.34c-2.805 0-5.22-.569-7.244-1.705-2.012-1.148-3.563-2.77-4.652-4.865-1.089-2.107-1.634-4.599-1.634-7.475 0-2.805.545-5.267 1.634-7.386s2.622-3.77 4.599-4.954c1.988-1.184 4.32-1.775 6.995-1.775 1.8 0 3.475.29 5.025.87 1.563.568 2.924 1.426 4.084 2.575 1.172 1.148 2.083 2.592 2.734 4.332.651 1.728.977 3.752.977 6.072v2.077h-23.029v-4.687h15.909c0-1.089-.237-2.054-.71-2.894s-1.131-1.497-1.971-1.971c-.829-.485-1.793-.728-2.894-.728-1.149 0-2.167.266-3.054.799a5.6 5.6 0 0 0-2.06 2.113c-.497.876-.752 1.852-.763 2.93v4.457c0 1.349.248 2.515.745 3.498.509.983 1.225 1.74 2.149 2.273s2.018.799 3.284.799c.841 0 1.61-.118 2.309-.355a4.79 4.79 0 0 0 1.793-1.065c.497-.474.876-1.053 1.136-1.74l6.996.462c-.355 1.681-1.083 3.149-2.184 4.403-1.089 1.243-2.497 2.214-4.226 2.912-1.716.686-3.699 1.03-5.948 1.03zm29.741 10.262c-2.45 0-4.551-.337-6.303-1.012-1.74-.662-3.125-1.568-4.155-2.716s-1.699-2.439-2.007-3.871l6.996-.941c.213.544.551 1.053 1.012 1.527s1.072.852 1.829 1.136c.77.296 1.705.444 2.806.444 1.645 0 3-.402 4.066-1.207 1.077-.793 1.615-2.125 1.615-3.995v-4.989h-.319c-.332.757-.829 1.474-1.492 2.148s-1.515 1.225-2.557 1.651-2.284.639-3.728.639c-2.048 0-3.912-.473-5.593-1.42-1.669-.959-3.001-2.421-3.995-4.386-.983-1.977-1.474-4.474-1.474-7.493 0-3.09.503-5.67 1.509-7.742s2.344-3.622 4.013-4.652a10.37 10.37 0 0 1 5.522-1.545c1.527 0 2.805.26 3.835.781 1.03.509 1.859 1.148 2.486 1.918.639.758 1.13 1.503 1.474 2.237h.284v-4.581h7.51v27.539c0 2.32-.568 4.262-1.704 5.824s-2.711 2.735-4.723 3.516c-2.001.793-4.303 1.189-6.907 1.189zm.16-16.867c1.219 0 2.249-.302 3.089-.906.853-.616 1.504-1.492 1.953-2.628.462-1.148.693-2.521.693-4.119s-.225-2.983-.675-4.155c-.45-1.184-1.101-2.101-1.953-2.752s-1.888-.977-3.107-.977c-1.243 0-2.291.337-3.143 1.012-.852.663-1.497 1.586-1.935 2.77s-.657 2.551-.657 4.102c0 1.574.219 2.936.657 4.084.449 1.136 1.095 2.018 1.935 2.646.852.615 1.9.923 3.143.923zm23.863 16.299c-.958 0-1.858-.077-2.698-.231-.829-.142-1.516-.325-2.06-.55l1.704-5.646c.888.272 1.687.42 2.397.444.723.023 1.344-.142 1.865-.498.532-.355.965-.958 1.296-1.811l.444-1.154-9.784-28.054h7.955l5.646 20.028h.284l5.7-20.028h8.008l-10.6 30.22c-.509 1.468-1.202 2.747-2.078 3.836-.864 1.101-1.959 1.947-3.285 2.539-1.325.603-2.923.905-4.794.905z" fill="#8f8f8f"/><use xlink:href="#AT" fill="url(#AE)"/><use xlink:href="#AT" fill="url(#AF)"/><use xlink:href="#AU" fill="url(#AG)"/><use xlink:href="#AU" fill="url(#AF)"/><use xlink:href="#AV" fill="url(#AE)"/><use xlink:href="#AV" fill="url(#AF)"/><use xlink:href="#AW" fill="url(#AG)"/><use xlink:href="#AW" fill="url(#AF)"/><use xlink:href="#AX" fill="url(#AG)"/><use xlink:href="#AX" fill="url(#AF)"/><use xlink:href="#AY" fill="url(#AG)"/><use xlink:href="#AY" fill="url(#AF)"/><use xlink:href="#AZ" fill="url(#AG)"/><use xlink:href="#AZ" fill="url(#AF)"/><g class="F"><use xlink:href="#Aa" fill="url(#AH)"/><use xlink:href="#Aa" fill="url(#AI)"/></g><g filter="url(#T)" class="J"><rect x="931" y="147" width="171" height="62" rx="15"/></g><g filter="url(#U)" class="J"><path d="M1017 354.333c7.36 0 13.33-5.969 13.33-13.333s-5.97-13.333-13.33-13.333-13.33 5.969-13.33 13.333 5.97 13.333 13.33 13.333zm2.5-13.333V209h-5v132h5z"/></g><path d="M1002.56 172.866c-.1-1.002-.53-1.781-1.28-2.337-.76-.555-1.779-.832-3.072-.832-.878 0-1.62.124-2.224.373-.605.24-1.069.575-1.392 1.006-.315.431-.473.92-.473 1.467-.016.456.079.853.286 1.193.216.34.51.634.883.883a6.67 6.67 0 0 0 1.292.633 13.36 13.36 0 0 0 1.566.448l2.284.547a16.19 16.19 0 0 1 3.06.994c.93.414 1.73.924 2.41 1.529s1.21 1.317 1.58 2.138c.38.82.58 1.76.58 2.821 0 1.558-.4 2.908-1.19 4.052-.78 1.135-1.9 2.018-3.38 2.647-1.47.622-3.23.932-5.306.932-2.055 0-3.845-.314-5.37-.944-1.516-.63-2.701-1.562-3.554-2.797-.846-1.243-1.289-2.78-1.33-4.611h5.207c.058.854.303 1.566.734 2.138.439.563 1.023.99 1.752 1.28.738.282 1.57.423 2.498.423.912 0 1.703-.133 2.379-.398.67-.265 1.2-.634 1.57-1.106.38-.472.56-1.015.56-1.628 0-.572-.17-1.053-.51-1.442-.33-.39-.82-.721-1.46-.994s-1.424-.522-2.352-.746l-2.772-.696c-2.146-.522-3.84-1.338-5.083-2.449s-1.86-2.606-1.852-4.487c-.008-1.541.402-2.887 1.23-4.039.837-1.152 1.985-2.051 3.443-2.697s3.116-.97 4.972-.97c1.884 0 3.534.324 4.944.97 1.42.646 2.52 1.545 3.31 2.697s1.19 2.486 1.22 4.002h-5.16zm17.73 18.507c-1.97 0-3.66-.398-5.08-1.193-1.4-.804-2.49-1.939-3.25-3.406-.76-1.475-1.15-3.219-1.15-5.232 0-1.964.39-3.688 1.15-5.171s1.83-2.639 3.22-3.468 3.02-1.242 4.89-1.242c1.26 0 2.44.203 3.52.609 1.1.397 2.05.998 2.86 1.802.82.803 1.46 1.814 1.91 3.032.46 1.21.69 2.627.69 4.251v1.454h-16.12v-3.281h11.13c0-.762-.16-1.438-.49-2.026a3.54 3.54 0 0 0-1.38-1.379c-.58-.34-1.26-.51-2.03-.51-.8 0-1.52.186-2.14.559a3.96 3.96 0 0 0-1.44 1.479c-.35.613-.52 1.297-.53 2.051v3.12c0 .944.17 1.761.52 2.448.36.688.86 1.218 1.5 1.591.65.373 1.42.559 2.3.559.59 0 1.13-.082 1.62-.248s.91-.414 1.25-.746c.35-.331.62-.737.8-1.218l4.9.323a6.71 6.71 0 0 1-1.53 3.083c-.77.87-1.75 1.549-2.96 2.038-1.2.481-2.59.721-4.16.721zm17.51-25.828V191h-5.3v-25.455h5.3zm9.53 0V191h-5.29v-25.455h5.29z" class="E"/></g><defs><filter id="D" x="74" y="169" width="1133" height="662" filterUnits="userSpaceOnUse" class="C"><feFlood result="A" class="D"/><feColorMatrix in="SourceAlpha" values="0 0 0 0 0 0 0 0 0 0 0 0 0 0 0 0 0 0 127 0" result="B"/><feOffset dx="-10" dy="10"/><feGaussianBlur stdDeviation="5"/><feComposite in2="B" operator="out"/><feColorMatrix values="0 0 0 0 0 0 0 0 0 0 0 0 0 0 0 0 0 0 0.05 0"/><feBlend in2="A"/><feBlend in="SourceGraphic"/></filter><filter id="E" x="134.587" y="186.553" width="1078.64" height="576.196" filterUnits="userSpaceOnUse" class="C"><feFlood result="A" class="D"/><feColorMatrix in="SourceAlpha" values="0 0 0 0 0 0 0 0 0 0 0 0 0 0 0 0 0 0 127 0" result="B"/><feOffset dx="-15" dy="25"/><feGaussianBlur stdDeviation="15"/><feComposite in2="B" operator="out"/><feColorMatrix values="0 0 0 0 0 0 0 0 0 0 0 0 0 0 0 0 0 0 0.2 0"/><feBlend in2="A"/><feBlend in="SourceGraphic"/></filter><filter id="F" x="130" y="492" width="191" height="82" filterUnits="userSpaceOnUse" class="C"><feFlood result="A" class="D"/><feColorMatrix in="SourceAlpha" values="0 0 0 0 0 0 0 0 0 0 0 0 0 0 0 0 0 0 127 0" result="B"/><feOffset dx="-10" dy="10"/><feGaussianBlur stdDeviation="5"/><feComposite in2="B" operator="out"/><feColorMatrix values="0 0 0 0 0 0 0 0 0 0 0 0 0 0 0 0 0 0 0.15 0"/><feBlend in2="A"/><feBlend in="SourceGraphic"/></filter><filter id="G" x="192.667" y="373.667" width="46.667" height="141.333" filterUnits="userSpaceOnUse" class="C"><feFlood result="A" class="D"/><feColorMatrix in="SourceAlpha" values="0 0 0 0 0 0 0 0 0 0 0 0 0 0 0 0 0 0 127 0" result="B"/><feOffset dx="-10" dy="10"/><feGaussianBlur stdDeviation="5"/><feComposite in2="B" operator="out"/><feColorMatrix values="0 0 0 0 0 0 0 0 0 0 0 0 0 0 0 0 0 0 0.15 0"/><feBlend in2="A"/><feBlend in="SourceGraphic"/></filter><filter id="H" x="74" y="144" width="237" height="82" filterUnits="userSpaceOnUse" class="C"><feFlood result="A" class="D"/><feColorMatrix in="SourceAlpha" values="0 0 0 0 0 0 0 0 0 0 0 0 0 0 0 0 0 0 127 0" result="B"/><feOffset dx="-10" dy="10"/><feGaussianBlur stdDeviation="5"/><feComposite in2="B" operator="out"/><feColorMatrix values="0 0 0 0 0 0 0 0 0 0 0 0 0 0 0 0 0 0 0.15 0"/><feBlend in2="A"/><feBlend in="SourceGraphic"/></filter><filter id="I" x="7" y="341" width="184" height="117" filterUnits="userSpaceOnUse" class="C"><feFlood result="A" class="D"/><feColorMatrix in="SourceAlpha" values="0 0 0 0 0 0 0 0 0 0 0 0 0 0 0 0 0 0 127 0" result="B"/><feOffset dx="-10" dy="10"/><feGaussianBlur stdDeviation="5"/><feComposite in2="B" operator="out"/><feColorMatrix values="0 0 0 0 0 0 0 0 0 0 0 0 0 0 0 0 0 0 0.15 0"/><feBlend in2="A"/><feBlend in="SourceGraphic"/></filter><filter id="J" x="958" y="496" width="184" height="117" filterUnits="userSpaceOnUse" class="C"><feFlood result="A" class="D"/><feColorMatrix in="SourceAlpha" values="0 0 0 0 0 0 0 0 0 0 0 0 0 0 0 0 0 0 127 0" result="B"/><feOffset dx="-10" dy="10"/><feGaussianBlur stdDeviation="5"/><feComposite in2="B" operator="out"/><feColorMatrix values="0 0 0 0 0 0 0 0 0 0 0 0 0 0 0 0 0 0 0.15 0"/><feBlend in2="A"/><feBlend in="SourceGraphic"/></filter><filter id="K" x="327" y="604" width="191" height="82" filterUnits="userSpaceOnUse" class="C"><feFlood result="A" class="D"/><feColorMatrix in="SourceAlpha" values="0 0 0 0 0 0 0 0 0 0 0 0 0 0 0 0 0 0 127 0" result="B"/><feOffset dx="-10" dy="10"/><feGaussianBlur stdDeviation="5"/><feComposite in2="B" operator="out"/><feColorMatrix values="0 0 0 0 0 0 0 0 0 0 0 0 0 0 0 0 0 0 0.15 0"/><feBlend in2="A"/><feBlend in="SourceGraphic"/></filter><filter id="L" x="454.667" y="482.667" width="46.667" height="141.333" filterUnits="userSpaceOnUse" class="C"><feFlood result="A" class="D"/><feColorMatrix in="SourceAlpha" values="0 0 0 0 0 0 0 0 0 0 0 0 0 0 0 0 0 0 127 0" result="B"/><feOffset dx="-10" dy="10"/><feGaussianBlur stdDeviation="5"/><feComposite in2="B" operator="out"/><feColorMatrix values="0 0 0 0 0 0 0 0 0 0 0 0 0 0 0 0 0 0 0.15 0"/><feBlend in2="A"/><feBlend in="SourceGraphic"/></filter><filter id="M" x="563" y="807" width="191" height="82" filterUnits="userSpaceOnUse" class="C"><feFlood result="A" class="D"/><feColorMatrix in="SourceAlpha" values="0 0 0 0 0 0 0 0 0 0 0 0 0 0 0 0 0 0 127 0" result="B"/><feOffset dx="-10" dy="10"/><feGaussianBlur stdDeviation="5"/><feComposite in2="B" operator="out"/><feColorMatrix values="0 0 0 0 0 0 0 0 0 0 0 0 0 0 0 0 0 0 0.15 0"/><feBlend in2="A"/><feBlend in="SourceGraphic"/></filter><filter id="N" x="625.667" y="688.667" width="46.667" height="141.333" filterUnits="userSpaceOnUse" class="C"><feFlood result="A" class="D"/><feColorMatrix in="SourceAlpha" values="0 0 0 0 0 0 0 0 0 0 0 0 0 0 0 0 0 0 127 0" result="B"/><feOffset dx="-10" dy="10"/><feGaussianBlur stdDeviation="5"/><feComposite in2="B" operator="out"/><feColorMatrix values="0 0 0 0 0 0 0 0 0 0 0 0 0 0 0 0 0 0 0.15 0"/><feBlend in2="A"/><feBlend in="SourceGraphic"/></filter><filter id="O" x="1002.97" y="275.637" width="169.219" height="173.014" filterUnits="userSpaceOnUse" class="C"><feFlood result="A" class="D"/><feColorMatrix in="SourceAlpha" values="0 0 0 0 0 0 0 0 0 0 0 0 0 0 0 0 0 0 127 0" result="B"/><feOffset dx="-15" dy="25"/><feGaussianBlur stdDeviation="15"/><feComposite in2="B" operator="out"/><feColorMatrix values="0 0 0 0 0 0 0 0 0 0 0 0 0 0 0 0 0 0 0.2 0"/><feBlend in2="A"/><feBlend in="SourceGraphic"/></filter><filter id="P" x="1098.7" y="238.801" width="172.524" height="171.386" filterUnits="userSpaceOnUse" class="C"><feFlood result="A" class="D"/><feColorMatrix in="SourceAlpha" values="0 0 0 0 0 0 0 0 0 0 0 0 0 0 0 0 0 0 127 0" result="B"/><feOffset dx="-15" dy="25"/><feGaussianBlur stdDeviation="15"/><feComposite in2="B" operator="out"/><feColorMatrix values="0 0 0 0 0 0 0 0 0 0 0 0 0 0 0 0 0 0 0.2 0"/><feBlend in2="A"/><feBlend in="SourceGraphic"/></filter><filter id="Q" x="814.315" y="206.471" width="194.228" height="178.887" filterUnits="userSpaceOnUse" class="C"><feFlood result="A" class="D"/><feColorMatrix in="SourceAlpha" values="0 0 0 0 0 0 0 0 0 0 0 0 0 0 0 0 0 0 127 0" result="B"/><feOffset dx="-15" dy="25"/><feGaussianBlur stdDeviation="15"/><feComposite in2="B" operator="out"/><feColorMatrix values="0 0 0 0 0 0 0 0 0 0 0 0 0 0 0 0 0 0 0.2 0"/><feBlend in2="A"/><feBlend in="SourceGraphic"/></filter><filter id="R" x="19.59" y="670.926" width="235.372" height="235.063" filterUnits="userSpaceOnUse" class="C"><feFlood result="A" class="D"/><feColorMatrix in="SourceAlpha" values="0 0 0 0 0 0 0 0 0 0 0 0 0 0 0 0 0 0 127 0" result="B"/><feOffset dx="-10" dy="20"/><feGaussianBlur stdDeviation="15"/><feComposite in2="B" operator="out"/><feColorMatrix values="0 0 0 0 0 0 0 0 0 0 0 0 0 0 0 0 0 0 0.2 0"/><feBlend in2="A"/><feBlend in="SourceGraphic"/></filter><filter id="S" x="112.782" y="723.214" width="84.785" height="83.856" filterUnits="userSpaceOnUse" class="C"><feFlood result="A" class="D"/><feColorMatrix in="SourceAlpha" values="0 0 0 0 0 0 0 0 0 0 0 0 0 0 0 0 0 0 127 0" result="B"/><feOffset dx="-2" dy="2"/><feGaussianBlur stdDeviation="2.5"/><feComposite in2="B" operator="out"/><feColorMatrix values="0 0 0 0 0 0 0 0 0 0 0 0 0 0 0 0 0 0 0.25 0"/><feBlend in2="A"/><feBlend in="SourceGraphic"/></filter><filter id="T" x="911" y="147" width="191" height="82" filterUnits="userSpaceOnUse" class="C"><feFlood result="A" class="D"/><feColorMatrix in="SourceAlpha" values="0 0 0 0 0 0 0 0 0 0 0 0 0 0 0 0 0 0 127 0" result="B"/><feOffset dx="-10" dy="10"/><feGaussianBlur stdDeviation="5"/><feComposite in2="B" operator="out"/><feColorMatrix values="0 0 0 0 0 0 0 0 0 0 0 0 0 0 0 0 0 0 0.15 0"/><feBlend in2="A"/><feBlend in="SourceGraphic"/></filter><filter id="U" x="983.667" y="209" width="46.667" height="165.333" filterUnits="userSpaceOnUse" class="C"><feFlood result="A" class="D"/><feColorMatrix in="SourceAlpha" values="0 0 0 0 0 0 0 0 0 0 0 0 0 0 0 0 0 0 127 0" result="B"/><feOffset dx="-10" dy="10"/><feGaussianBlur stdDeviation="5"/><feComposite in2="B" operator="out"/><feColorMatrix values="0 0 0 0 0 0 0 0 0 0 0 0 0 0 0 0 0 0 0.15 0"/><feBlend in2="A"/><feBlend in="SourceGraphic"/></filter><linearGradient id="V" x1="1070.82" y1="286.582" x2="1169.99" y2="345.989" xlink:href="#Ab"><stop stop-color="#f5a73c"/><stop offset=".203" stop-color="#ffc97e"/><stop offset=".292" stop-color="#eda23b"/><stop offset=".464" stop-color="#ffc97e"/><stop offset=".604" stop-color="#eda23b"/><stop offset=".776" stop-color="#ffc97e"/><stop offset="1" stop-color="#cf831b"/></linearGradient><linearGradient id="W" x1="1076.41" y1="287.11" x2="1083.21" y2="399.274" xlink:href="#Ab"><stop stop-color="#e4901e"/><stop offset="1" stop-color="#b87419"/></linearGradient><radialGradient id="X" cx="0" cy="0" r="1" gradientTransform="matrix(33.620601957080716,-27.99980149310957,46.40342298184284,55.718645501915965,1060.4,363.774)" xlink:href="#Ab"><stop stop-color="#3d2505"/><stop offset="1" stop-color="#3a2302" stop-opacity="0"/></radialGradient><radialGradient id="Y" cx="0" cy="0" r="1" gradientTransform="translate(1076.33 292.311) rotate(65.9224) scale(84.0373 63.7914)" xlink:href="#Ab"><stop stop-color="#fff"/><stop offset="1" stop-color="#fff" stop-opacity="0"/></radialGradient><radialGradient id="Z" cx="0" cy="0" r="1" gradientTransform="matrix(-26.0718239749006,-64.66646696690486,50.404663889500306,-20.32183890784747,1121.45,392.627)" xlink:href="#Ab"><stop stop-color="#8e5507"/><stop offset="1" stop-color="#9a5d0a" stop-opacity="0"/></radialGradient><linearGradient id="a" x1="1082.64" y1="307.082" x2="1078.2" y2="374.617" xlink:href="#Ab"><stop stop-color="#f5a73c"/><stop offset="1" stop-color="#ffc371"/></linearGradient><radialGradient id="b" cx="0" cy="0" r="1" gradientTransform="translate(1118.84 380.227) rotate(-123.208) scale(48.282 33.4537)" xlink:href="#Ab"><stop stop-color="#fff"/><stop offset="1" stop-color="#fff" stop-opacity="0"/></radialGradient><radialGradient id="c" cx="0" cy="0" r="1" gradientTransform="matrix(19.023732653404707,37.38277988515278,-27.44541601022539,13.96670494661013,1085.35,312.546)" xlink:href="#Ab"><stop stop-color="#8e5507"/><stop offset="1" stop-color="#9a5d0a" stop-opacity="0"/></radialGradient><linearGradient id="d" x1="1172.87" y1="255.319" x2="1260.37" y2="313.719" xlink:href="#Ab"><stop stop-color="#f5a73c"/><stop offset=".203" stop-color="#ffc97e"/><stop offset=".292" stop-color="#eda23b"/><stop offset=".464" stop-color="#ffc97e"/><stop offset=".604" stop-color="#eda23b"/><stop offset=".776" stop-color="#ffc97e"/><stop offset="1" stop-color="#cf831b"/></linearGradient><linearGradient id="e" x1="1160.41" y1="256.312" x2="1145.33" y2="343.928" xlink:href="#Ab"><stop stop-color="#e4901e"/><stop offset="1" stop-color="#b87419"/></linearGradient><radialGradient id="f" cx="0" cy="0" r="1" gradientTransform="translate(1150.47 265.472) rotate(43.0251) scale(76.8484 36.8635)" xlink:href="#Ab"><stop stop-color="#fff"/><stop offset="1" stop-color="#fff" stop-opacity="0"/></radialGradient><radialGradient id="g" cx="0" cy="0" r="1" gradientTransform="matrix(-37.777335276602464,-59.585006346892065,29.865304387129985,-18.934824146901246,1224.14,354.018)" xlink:href="#Ab"><stop stop-color="#8e5507"/><stop offset="1" stop-color="#9a5d0a" stop-opacity="0"/></radialGradient><linearGradient id="h" x1="1170.29" y1="273.99" x2="1156.09" y2="322.833" xlink:href="#Ab"><stop stop-color="#f5a73c"/><stop offset="1" stop-color="#ffc371"/></linearGradient><radialGradient id="i" cx="0" cy="0" r="1" gradientTransform="translate(1219.2 343.474) rotate(-129.325) scale(51.2318 21.2402)" xlink:href="#Ab"><stop stop-color="#fff"/><stop offset="1" stop-color="#fff" stop-opacity="0"/></radialGradient><radialGradient id="j" cx="0" cy="0" r="1" gradientTransform="matrix(25.43571009251031,35.6132502771057,-16.18093888250419,11.556756747490361,1173.95,279.182)" xlink:href="#Ab"><stop stop-color="#8e5507"/><stop offset="1" stop-color="#9a5d0a" stop-opacity="0"/></radialGradient><linearGradient id="k" x1="902.426" y1="217.905" x2="932.334" y2="302.578" xlink:href="#Ab"><stop stop-color="#f5a73c"/><stop offset="1" stop-color="#ffc371"/></linearGradient><radialGradient id="l" cx="0" cy="0" r="1" gradientTransform="matrix(34.200672367656495,38.656556085743304,-54.99527425835359,48.656050800475704,907.289,223.61)" xlink:href="#Ab"><stop stop-color="#8e5507"/><stop offset="1" stop-color="#9a5d0a" stop-opacity=".37"/></radialGradient><linearGradient id="m" x1="76.12" y1="695.913" x2="177.146" y2="865.384" xlink:href="#Ab"><stop stop-color="#414141"/><stop stop-color="#414141"/><stop offset=".182" stop-color="#989898"/><stop offset=".307" stop-color="#414141"/><stop offset=".432" stop-color="#989898"/><stop offset=".771" stop-color="#272727"/><stop offset="1" stop-color="#0a0a0a"/></linearGradient><radialGradient id="n" cx="0" cy="0" r="1" gradientTransform="translate(99.3291 851.642) rotate(-61.5451) scale(37.8864 127.944)" xlink:href="#Ab"><stop stop-color="#323232"/><stop offset="1" stop-color="#323232" stop-opacity="0"/></radialGradient><radialGradient id="o" cx="0" cy="0" r="1" gradientTransform="translate(38.3674 13.115) rotate(41.7026) scale(169.18 600.051)" xlink:href="#Ab"><stop stop-color="#757575"/><stop offset="1" stop-color="#262626"/></radialGradient><radialGradient id="p" cx="0" cy="0" r="1" gradientTransform="translate(66.1621 4.88066) rotate(82.9261) scale(66.6023 72.1007)" xlink:href="#Ab"><stop stop-color="#fff"/><stop offset="1" stop-color="#fff" stop-opacity="0"/></radialGradient><radialGradient id="q" cx="0" cy="0" r="1" gradientTransform="translate(60.0713 157.074) rotate(-77.484) scale(132.667 110.331)" xlink:href="#Ab"><stop/><stop offset="1" stop-opacity="0"/></radialGradient><radialGradient id="r" cx="0" cy="0" r="1" gradientTransform="translate(104.314 124.322) rotate(-128.741) scale(62.1795 82.6815)" xlink:href="#Ab"><stop stop-color="#fff"/><stop offset="1" stop-color="#fff" stop-opacity="0"/></radialGradient><radialGradient id="s" cx="0" cy="0" r="1" gradientTransform="translate(37.3304 10.7493) rotate(69.0839) scale(75.1836 92.1199)" xlink:href="#Ab"><stop stop-color="#474747"/><stop offset="1" stop-color="#3a3a3a" stop-opacity="0"/></radialGradient><radialGradient id="t" cx="0" cy="0" r="1" gradientTransform="translate(96.6842 20.8346) rotate(95.1782) scale(105.268 262.591)" xlink:href="#Ab"><stop stop-color="#757575"/><stop offset="1" stop-color="#262626"/></radialGradient><radialGradient id="u" cx="0" cy="0" r="1" gradientTransform="translate(51.5716 2.86389) rotate(84.9875) scale(63.6113 67.3513)" xlink:href="#Ab"><stop stop-color="#fff"/><stop offset="1" stop-color="#fff" stop-opacity="0"/></radialGradient><radialGradient id="v" cx="0" cy="0" r="1" gradientTransform="translate(67.2433 116.435) rotate(-103.758) scale(47.0497 54.3913)" xlink:href="#Ab"><stop/><stop offset="1" stop-opacity="0"/></radialGradient><linearGradient id="w" x1="19.221" y1="22.079" x2="55.725" y2="57.746" xlink:href="#Ab"><stop/><stop offset=".439" stop-color="#747474"/><stop offset="1"/></linearGradient><linearGradient id="x" x1="158.555" y1="746.923" x2="141.74" y2="763.363" xlink:href="#Ab"><stop stop-color="#ff827a"/><stop offset="1" stop-color="#ffa825"/></linearGradient><linearGradient id="y" x1="174.141" y1="752.215" x2="156.965" y2="778.814" xlink:href="#Ab"><stop stop-color="#ff827a"/><stop offset="1" stop-color="#ffa825"/></linearGradient><linearGradient id="z" x1="168.609" y1="726.123" x2="172.02" y2="757.36" xlink:href="#Ab"><stop stop-color="#ff827a"/><stop offset="1" stop-color="#ea756e"/></linearGradient><linearGradient id="AA" x1="169.054" y1="753.92" x2="189.843" y2="766.656" xlink:href="#Ab"><stop stop-color="#ff827a"/><stop offset="1" stop-color="#ea756e"/></linearGradient><linearGradient id="AB" x1="183.741" y1="729.452" x2="151.842" y2="803.638" xlink:href="#Ab"><stop stop-color="#ff827a"/><stop offset="1" stop-color="#ffa825"/></linearGradient><linearGradient id="AC" x1="183.461" y1="726.144" x2="117.422" y2="783.242" xlink:href="#Ab"><stop stop-color="#ff827a"/><stop offset="1" stop-color="#ffa825"/></linearGradient><radialGradient id="AD" cx="0" cy="0" r="1" gradientTransform="translate(71.2056 11.1874) rotate(80.191) scale(155.876 204.018)" xlink:href="#Ab"><stop stop-color="#fff"/><stop offset="1"/></radialGradient><linearGradient id="AE" x1="889.43" y1="817.586" x2="904.76" y2="960.472" xlink:href="#Ab"><stop stop-color="#ffc47f"/><stop offset=".067" stop-color="#ffc37f"/><stop offset=".133" stop-color="#fec17c"/><stop offset=".2" stop-color="#fdbc77"/><stop offset=".267" stop-color="#fbb56f"/><stop offset=".333" stop-color="#f9ad66"/><stop offset=".4" stop-color="#f7a35b"/><stop offset=".467" stop-color="#f4974f"/><stop offset=".533" stop-color="#f18c43"/><stop offset=".6" stop-color="#ef8137"/><stop offset=".667" stop-color="#ec762c"/><stop offset=".733" stop-color="#ea6e23"/><stop offset=".8" stop-color="#e9671c"/><stop offset=".867" stop-color="#e76317"/><stop offset=".933" stop-color="#e76014"/><stop offset="1" stop-color="#e75f13"/></linearGradient><linearGradient id="AF" x1="1157.2" y1="839.394" x2="1139.98" y2="942.824" xlink:href="#Ab"><stop stop-color="#ff827a"/><stop offset="1" stop-color="#ffa825"/></linearGradient><linearGradient id="AG" x1="889.431" y1="817.586" x2="904.76" y2="960.472" xlink:href="#Ab"><stop stop-color="#ffc47f"/><stop offset=".067" stop-color="#ffc37f"/><stop offset=".133" stop-color="#fec17c"/><stop offset=".2" stop-color="#fdbc77"/><stop offset=".267" stop-color="#fbb56f"/><stop offset=".333" stop-color="#f9ad66"/><stop offset=".4" stop-color="#f7a35b"/><stop offset=".467" stop-color="#f4974f"/><stop offset=".533" stop-color="#f18c43"/><stop offset=".6" stop-color="#ef8137"/><stop offset=".667" stop-color="#ec762c"/><stop offset=".733" stop-color="#ea6e23"/><stop offset=".8" stop-color="#e9671c"/><stop offset=".867" stop-color="#e76317"/><stop offset=".933" stop-color="#e76014"/><stop offset="1" stop-color="#e75f13"/></linearGradient><linearGradient id="AH" x1="807" y1="817.586" x2="868.8" y2="927.308" xlink:href="#Ab"><stop stop-color="#ffc47f"/><stop offset=".067" stop-color="#ffc37f"/><stop offset=".133" stop-color="#fec17c"/><stop offset=".2" stop-color="#fdbc77"/><stop offset=".267" stop-color="#fbb56f"/><stop offset=".333" stop-color="#f9ad66"/><stop offset=".4" stop-color="#f7a35b"/><stop offset=".467" stop-color="#f4974f"/><stop offset=".533" stop-color="#f18c43"/><stop offset=".6" stop-color="#ef8137"/><stop offset=".667" stop-color="#ec762c"/><stop offset=".733" stop-color="#ea6e23"/><stop offset=".8" stop-color="#e9671c"/><stop offset=".867" stop-color="#e76317"/><stop offset=".933" stop-color="#e76014"/><stop offset="1" stop-color="#e75f13"/></linearGradient><linearGradient id="AI" x1="858.004" y1="839.394" x2="805.332" y2="899.648" xlink:href="#Ab"><stop stop-color="#ff827a"/><stop offset="1" stop-color="#ffa825"/></linearGradient><clipPath id="AJ"><path d="M0 0h1302v955H0z" class="E"/></clipPath><path id="AK" d="M1149.13 353.06c4.91 27.989-13.58 45.594-41.29 39.323-27.72-6.272-54.17-34.045-59.08-62.034s13.58-45.595 41.3-39.323c27.71 6.271 54.16 34.045 59.07 62.034z"/><path id="AL" d="M1107.51 390.538c26.71 6.043 44.52-10.921 39.79-37.892s-30.21-53.733-56.92-59.776-44.52 10.922-39.79 37.892 30.22 53.733 56.92 59.776zm.33 1.845c27.71 6.271 46.2-11.334 41.29-39.323s-31.36-55.763-59.07-62.034c-27.72-6.272-46.21 11.334-41.3 39.323s31.36 55.762 59.08 62.034z"/><path id="AM" d="M1104.38 372.689c16.95 3.834 28.25-6.93 25.25-24.043s-19.17-34.094-36.12-37.929-28.25 6.93-25.25 24.043 19.18 34.094 36.12 37.929zm.65 3.689c18.96 4.291 31.61-7.755 28.25-26.905s-21.45-38.154-40.42-42.445c-18.96-4.291-31.61 7.755-28.25 26.906s21.46 38.153 40.42 42.444z"/><path id="AN" d="M1211.92 349.482c23.78 10.219 34.48-.644 23.88-24.263-10.59-23.62-38.46-51.05-62.25-61.269-23.78-10.218-34.47.645-23.88 24.264 10.6 23.619 38.47 51.05 62.25 61.268zm.77 1.709c24.73 10.627 35.85-.671 24.83-25.233s-40-53.09-64.73-63.716c-24.74-10.627-35.86.67-24.84 25.233s40 53.089 64.74 63.716z"/><path id="AO" d="M1205.78 335.79c16.17 6.947 23.44-.438 16.23-16.495-7.2-16.057-26.15-34.705-42.32-41.652-16.16-6.947-23.43.438-16.23 16.495s26.15 34.705 42.32 41.652zm.76 1.708c17.12 7.356 24.82-.464 17.19-17.464-7.62-17-27.68-36.744-44.8-44.1s-24.82.465-17.19 17.465c7.62 17 27.68 36.744 44.8 44.099z"/><path id="AP" d="M899.593 324.111l-14.679-89.716 5.658-1.381 14.679 89.716-5.658 1.381zm5.173-63.765c-.738-2.759-2.282-4.666-4.631-5.721s-5.318-1.144-8.906-.269c-2.438.595-4.439 1.448-6.003 2.558-1.568 1.088-2.701 2.348-3.399 3.782-.676 1.428-.887 2.913-.635 4.455.165 1.296.613 2.353 1.344 3.171.755.812 1.707 1.442 2.857 1.89 1.146.425 2.439.729 3.88.912 1.437.16 2.955.227 4.554.201l6.6-.007c3.196-.051 6.178.193 8.945.733s5.233 1.432 7.398 2.678a16.26 16.26 0 0 1 5.368 4.958c1.437 2.055 2.411 4.575 2.923 7.56.696 4.398.215 8.475-1.442 12.233-1.639 3.728-4.359 6.98-8.163 9.754-3.784 2.746-8.551 4.82-14.301 6.223-5.704 1.392-10.817 1.716-15.339.973-4.5-.748-8.219-2.574-11.157-5.478-2.92-2.932-4.859-6.965-5.819-12.101l14.455-3.527c.555 2.367 1.562 4.211 3.022 5.531 1.479 1.292 3.297 2.099 5.455 2.423 2.177.295 4.553.128 7.129-.5 2.53-.618 4.665-1.527 6.406-2.73 1.764-1.207 3.054-2.604 3.871-4.188s1.084-3.241.801-4.97c-.263-1.612-.957-2.852-2.079-3.72-1.1-.873-2.61-1.477-4.53-1.81-1.897-.339-4.185-.509-6.864-.512l-8.015-.085c-6.197-.018-11.277-1.172-15.24-3.461s-6.365-6.088-7.21-11.397c-.734-4.34-.217-8.414 1.552-12.223 1.791-3.815 4.562-7.127 8.312-9.937s8.2-4.843 13.352-6.101c5.244-1.279 9.97-1.485 14.178-.616 4.231.862 7.705 2.651 10.421 5.365s4.459 6.201 5.228 10.46l-14.318 3.493zm58.487 48.232l-14.68-89.716 5.658-1.381 14.68 89.716-5.658 1.381zm5.173-63.765c-.739-2.76-2.282-4.667-4.631-5.721s-5.318-1.145-8.906-.269c-2.438.595-4.439 1.447-6.003 2.558-1.568 1.087-2.702 2.348-3.4 3.782a7.4 7.4 0 0 0-.634 4.455c.164 1.296.612 2.353 1.344 3.17.755.812 1.707 1.443 2.856 1.891 1.146.425 2.44.729 3.881.912 1.437.159 2.955.226 4.553.201l6.6-.007c3.197-.051 6.179.193 8.946.733s5.233 1.432 7.398 2.677a16.27 16.27 0 0 1 5.368 4.959c1.436 2.055 2.411 4.575 2.923 7.56.696 4.398.215 8.475-1.443 12.232-1.638 3.729-4.359 6.98-8.162 9.755-3.784 2.745-8.551 4.82-14.301 6.223-5.704 1.391-10.817 1.716-15.34.973-4.499-.749-8.218-2.575-11.157-5.478-2.919-2.932-4.859-6.966-5.818-12.101l14.455-3.527c.554 2.367 1.562 4.211 3.021 5.531 1.479 1.291 3.298 2.099 5.455 2.423 2.177.295 4.554.128 7.13-.501 2.53-.617 4.665-1.527 6.406-2.729 1.763-1.208 3.054-2.604 3.871-4.188s1.084-3.241.801-4.97c-.264-1.612-.957-2.852-2.08-3.72-1.099-.874-2.609-1.477-4.529-1.81-1.897-.339-4.186-.51-6.865-.512l-8.014-.085c-6.198-.019-11.278-1.172-15.24-3.461s-6.366-6.088-7.21-11.397c-.734-4.34-.217-8.415 1.551-12.223 1.792-3.815 4.563-7.127 8.312-9.937s8.201-4.844 13.353-6.101c5.244-1.279 9.97-1.485 14.178-.617 4.231.863 7.705 2.652 10.421 5.366s4.459 6.201 5.227 10.46l-14.317 3.493z"/><path id="AQ" d="M156.27 752.53l2.352-1.61a9.62 9.62 0 0 0-2.262-.212c-1.156.031-2.272.281-3.291.744a7.88 7.88 0 0 0-2.301 1.586c1.662-.741 3.575-.918 5.502-.508z"/><path id="AR" d="M165.616 764.676c-.098 1.988-.772 3.809-1.936 5.233l-.553.61c1.127-.503 2.117-1.256 2.906-2.22.751-.919 1.298-2.003 1.618-3.191a9.68 9.68 0 0 0 .318-2.042l-2.353 1.61z"/><path id="AS" d="M123.261 741.48c-3.053 6.128-4.131 13.356-3.097 20.77s4.132 14.681 8.904 20.882 11.003 11.058 17.905 13.956 14.165 3.707 20.87 2.325a30.1 30.1 0 0 0 5.999-1.899c2.619-.788 8.916-3.851 13.155-9.799-2.064 2.524-4.505 4.651-7.239 6.329-2.893 1.776-6.114 3.049-9.562 3.759-6.705 1.382-13.968.573-20.87-2.325s-13.133-7.755-17.905-13.956-7.871-13.468-8.904-20.882.044-14.642 3.097-20.769c2.064-4.144 4.969-7.658 8.523-10.358a28.83 28.83 0 0 1 5.532-3.299c-2.729 1.048-9.079 4.409-12.644 9.472-1.454 1.754-2.717 3.693-3.764 5.794z"/><path id="AT" d="M950.32 868.827v6.768c0 8.154-2.727 14.895-8.181 20.222-5.397 5.327-12.509 7.991-21.336 7.991-9.221 0-16.755-2.827-22.602-8.48-5.847-5.708-8.771-12.802-8.771-21.282s2.924-15.575 8.771-21.283c5.847-5.762 13.156-8.643 21.927-8.643 5.51 0 10.542 1.196 15.096 3.588 4.61 2.392 8.236 5.626 10.879 9.703l-14.337 7.91c-2.361-3.479-6.128-5.219-11.301-5.219-4.216 0-7.646 1.305-10.288 3.914-2.587 2.609-3.88 5.98-3.88 10.111 0 3.914 1.209 7.339 3.626 10.274 2.418 2.881 6.157 4.322 11.217 4.322 5.847 0 9.755-2.011 11.722-6.034h-12.565v-13.862h30.023z"/><path id="AU" d="M984.599 861.733h15.601v40.771h-15.601v-3.67c-2.699 3.208-6.466 4.811-11.301 4.811-5.679 0-10.317-2.038-13.915-6.115s-5.398-9.214-5.398-15.412 1.799-11.334 5.398-15.411 8.236-6.115 13.915-6.115c4.835 0 8.602 1.603 11.301 4.81v-3.669zm-12.988 25.849c1.406 1.467 3.233 2.201 5.482 2.201s4.048-.734 5.398-2.201c1.405-1.468 2.108-3.289 2.108-5.464s-.703-3.995-2.108-5.463c-1.35-1.468-3.149-2.201-5.398-2.201s-4.076.733-5.482 2.201c-1.349 1.468-2.024 3.289-2.024 5.463s.675 3.996 2.024 5.464z"/><path id="AV" d="M1014.83 858.634c-2.36 0-4.42-.815-6.16-2.446-1.69-1.685-2.53-3.642-2.53-5.871s.84-4.158 2.53-5.789c1.74-1.685 3.8-2.528 6.16-2.528 2.3 0 4.3.843 5.99 2.528 1.74 1.631 2.61 3.56 2.61 5.789s-.87 4.186-2.61 5.871c-1.69 1.631-3.69 2.446-5.99 2.446zm-7.85 43.869v-40.77h15.61v40.77h-15.61z"/><path id="AW" d="M1056.21 860.592c4.61 0 8.29 1.549 11.04 4.647 2.82 3.045 4.22 7.611 4.22 13.699v23.566h-15.6v-21.935c0-3.642-1.74-5.463-5.23-5.463-1.85 0-3.29.571-4.3 1.712-.96 1.142-1.43 2.718-1.43 4.73v20.956h-15.61v-40.771h15.61v3.996c2.58-3.425 6.35-5.137 11.3-5.137z"/><path id="AX" d="M1085.66 858.634c-2.37 0-4.42-.815-6.16-2.446-1.69-1.685-2.53-3.642-2.53-5.871s.84-4.158 2.53-5.789c1.74-1.685 3.79-2.528 6.16-2.528 2.3 0 4.3.843 5.98 2.528 1.75 1.631 2.62 3.56 2.62 5.789s-.87 4.186-2.62 5.871c-1.68 1.631-3.68 2.446-5.98 2.446zm-7.85 43.869v-40.77h15.61v40.77h-15.61z"/><path id="AY" d="M1126.28 861.733h15.6v40.77h-15.6v-3.995c-2.59 3.425-6.36 5.137-11.3 5.137-4.62 0-8.33-1.522-11.14-4.566-2.75-3.099-4.13-7.692-4.13-13.781v-23.565h15.6v21.934c0 3.643 1.74 5.464 5.23 5.464 1.86 0 3.26-.571 4.22-1.713 1.01-1.141 1.52-2.718 1.52-4.729v-20.956z"/><path id="AZ" d="M1198.4 860.592c4.89 0 8.71 1.494 11.47 4.484 2.75 2.936 4.13 7.149 4.13 12.639v24.789h-15.6v-22.75c0-3.099-1.43-4.648-4.3-4.648-3.32 0-4.98 2.011-4.98 6.034v21.364h-15.6v-22.75c0-3.099-1.43-4.648-4.3-4.648-3.32 0-4.98 2.011-4.98 6.034v21.364h-15.6v-40.771h15.6v3.833c2.76-3.316 6.58-4.974 11.47-4.974 4.84 0 8.35 1.685 10.54 5.055 3.04-3.37 7.09-5.055 12.15-5.055z"/><path id="Aa" d="M863.613 890.073c3.397-5.082 5.21-11.057 5.21-17.169h-22.444c0 1.674-.497 3.311-1.427 4.703a8.47 8.47 0 0 1-3.8 3.118c-1.547.641-3.25.808-4.893.482a8.47 8.47 0 0 1-4.335-2.317 8.46 8.46 0 0 1-2.317-4.334 8.47 8.47 0 0 1 3.6-8.691 8.47 8.47 0 0 1 4.704-1.426V842c-6.113 0-12.09 1.812-17.173 5.208s-9.045 8.223-11.385 13.87a30.89 30.89 0 0 0-1.759 17.855c1.193 5.995 4.137 11.501 8.46 15.823a30.91 30.91 0 0 0 15.827 8.458c5.996 1.193 12.211.581 17.86-1.759a30.9 30.9 0 0 0 13.872-11.382zm5.21-48.073h-22.4v22.394h22.4V842z"/><linearGradient id="Ab" gradientUnits="userSpaceOnUse"/></defs></svg>